G04 #@! TF.FileFunction,Copper,L1,Top,Signal*
%FSLAX46Y46*%
G04 Gerber Fmt 4.6, Leading zero omitted, Abs format (unit mm)*
G04 Created by KiCad (PCBNEW 4.0.1-stable) date 16.12.2015 23:49:10*
%MOMM*%
G01*
G04 APERTURE LIST*
%ADD10C,0.100000*%
%ADD11R,1.500000X1.250000*%
%ADD12R,1.198880X1.198880*%
%ADD13R,1.727200X1.727200*%
%ADD14O,1.727200X1.727200*%
%ADD15R,1.500000X1.300000*%
%ADD16O,1.500000X1.300000*%
%ADD17R,1.800860X0.800100*%
%ADD18R,1.300000X1.500000*%
%ADD19R,0.400000X1.200000*%
%ADD20R,3.149600X1.800860*%
%ADD21R,3.657600X2.032000*%
%ADD22R,1.016000X2.032000*%
%ADD23C,0.600000*%
%ADD24C,0.800000*%
%ADD25C,0.250000*%
%ADD26C,0.254000*%
G04 APERTURE END LIST*
D10*
D11*
X134660000Y-99695000D03*
X137160000Y-99695000D03*
X132755000Y-85725000D03*
X135255000Y-85725000D03*
X148012231Y-106045000D03*
X145512231Y-106045000D03*
X147320000Y-119380000D03*
X144820000Y-119380000D03*
D12*
X163001960Y-92075000D03*
X165100000Y-92075000D03*
X169959020Y-92075000D03*
X167860980Y-92075000D03*
D13*
X157480000Y-84455000D03*
D14*
X157480000Y-81915000D03*
X160020000Y-84455000D03*
X160020000Y-81915000D03*
X162560000Y-84455000D03*
X162560000Y-81915000D03*
X165100000Y-84455000D03*
X165100000Y-81915000D03*
X167640000Y-84455000D03*
X167640000Y-81915000D03*
X170180000Y-84455000D03*
X170180000Y-81915000D03*
X172720000Y-84455000D03*
X172720000Y-81915000D03*
X175260000Y-84455000D03*
X175260000Y-81915000D03*
X177800000Y-84455000D03*
X177800000Y-81915000D03*
X180340000Y-84455000D03*
X180340000Y-81915000D03*
D15*
X158555000Y-102585000D03*
D16*
X160755000Y-102585000D03*
X158555000Y-104585000D03*
X160755000Y-104585000D03*
X158555000Y-106585000D03*
X160755000Y-106585000D03*
X158555000Y-108585000D03*
X160755000Y-108585000D03*
X158555000Y-110585000D03*
X160755000Y-110585000D03*
X158555000Y-112585000D03*
X160755000Y-112585000D03*
X158555000Y-114585000D03*
X160755000Y-114585000D03*
X158555000Y-116585000D03*
X160755000Y-116585000D03*
X158555000Y-118585000D03*
X160755000Y-118585000D03*
X158555000Y-120585000D03*
X160755000Y-120585000D03*
X180885000Y-104585000D03*
X180885000Y-106585000D03*
X178685000Y-106585000D03*
X180885000Y-102585000D03*
D15*
X178685000Y-102585000D03*
D16*
X178685000Y-104585000D03*
X178685000Y-118585000D03*
X180885000Y-118585000D03*
X180885000Y-120585000D03*
X180885000Y-114585000D03*
X178685000Y-116585000D03*
X180885000Y-116585000D03*
X178685000Y-120585000D03*
X178685000Y-114585000D03*
X178685000Y-112585000D03*
X180885000Y-110585000D03*
X178685000Y-108585000D03*
X180885000Y-108585000D03*
X178685000Y-110585000D03*
X180885000Y-112585000D03*
D17*
X172316140Y-119695000D03*
X172316140Y-117795000D03*
X169313860Y-118745000D03*
D15*
X141605000Y-90805000D03*
X138905000Y-90805000D03*
D18*
X139065000Y-86995000D03*
X139065000Y-84295000D03*
D15*
X174545000Y-92710000D03*
X177245000Y-92710000D03*
X177165000Y-95885000D03*
X174465000Y-95885000D03*
D18*
X183515000Y-90645000D03*
X183515000Y-93345000D03*
D15*
X183595000Y-96520000D03*
X180895000Y-96520000D03*
X162480000Y-95885000D03*
X165180000Y-95885000D03*
X168275000Y-95885000D03*
X170975000Y-95885000D03*
D19*
X149860000Y-81280000D03*
X149225000Y-81280000D03*
X148590000Y-81280000D03*
X147955000Y-81280000D03*
X147320000Y-81280000D03*
X146685000Y-81280000D03*
X146050000Y-81280000D03*
X145415000Y-81280000D03*
X144780000Y-81280000D03*
X144145000Y-81280000D03*
X143510000Y-81280000D03*
X142875000Y-81280000D03*
X142875000Y-86480000D03*
X143510000Y-86480000D03*
X144145000Y-86480000D03*
X144780000Y-86480000D03*
X145415000Y-86480000D03*
X146050000Y-86480000D03*
X146685000Y-86480000D03*
X147320000Y-86480000D03*
X147955000Y-86480000D03*
X148590000Y-86480000D03*
X149225000Y-86480000D03*
X149860000Y-86480000D03*
D20*
X137795000Y-95250000D03*
X133543040Y-95250000D03*
X138015980Y-80645000D03*
X133764020Y-80645000D03*
X144338040Y-101600000D03*
X148590000Y-101600000D03*
X144338040Y-123190000D03*
X148590000Y-123190000D03*
D21*
X146742231Y-109656991D03*
D22*
X146742231Y-116260991D03*
X149028231Y-116260991D03*
X144456231Y-116260991D03*
D13*
X133985000Y-113665000D03*
D14*
X136525000Y-113665000D03*
X133985000Y-116205000D03*
X136525000Y-116205000D03*
X133985000Y-118745000D03*
X136525000Y-118745000D03*
X133985000Y-121285000D03*
X136525000Y-121285000D03*
D23*
X153035000Y-117475000D03*
X156210000Y-122555000D03*
X147320000Y-96520000D03*
X154940000Y-90805000D03*
X135255000Y-105243760D03*
X180340000Y-99695000D03*
X173990000Y-99695000D03*
X165100000Y-125095000D03*
X145512231Y-104140000D03*
X152342769Y-113087231D03*
X133350000Y-90805000D03*
X152309990Y-85180010D03*
X143510000Y-90805000D03*
X151765000Y-86480000D03*
X172720000Y-101600000D03*
X146685000Y-92710000D03*
X137160000Y-88900000D03*
X172720000Y-107315000D03*
X175895000Y-106680000D03*
X184150000Y-123825000D03*
X156210000Y-93345000D03*
X151765000Y-93345000D03*
X155575000Y-92075000D03*
X151130000Y-92075000D03*
D24*
X150470002Y-83820000D02*
X146685000Y-83820000D01*
D25*
X156210000Y-122555000D02*
X166153910Y-122555000D01*
X166153910Y-122555000D02*
X169313860Y-119395050D01*
X169313860Y-119395050D02*
X169313860Y-118745000D01*
X153035000Y-117475000D02*
X151308020Y-117475000D01*
X151308020Y-117475000D02*
X150094011Y-116260991D01*
X148012231Y-106045000D02*
X148012231Y-106920000D01*
X148012231Y-106920000D02*
X152967770Y-111875539D01*
X152967770Y-111875539D02*
X152967770Y-113387232D01*
X152967770Y-113387232D02*
X150094011Y-116260991D01*
X150094011Y-116260991D02*
X149786231Y-116260991D01*
X149786231Y-116260991D02*
X149028231Y-116260991D01*
X148012231Y-106045000D02*
X148012231Y-102177769D01*
X148012231Y-102177769D02*
X148590000Y-101600000D01*
X147320000Y-96520000D02*
X147320000Y-100330000D01*
X147320000Y-100330000D02*
X148590000Y-101600000D01*
X158750000Y-90805000D02*
X154940000Y-90805000D01*
X165100000Y-84455000D02*
X158750000Y-90805000D01*
D24*
X133985000Y-116205000D02*
X132763686Y-116205000D01*
X132763686Y-116205000D02*
X132521399Y-115962713D01*
X132521399Y-115962713D02*
X132521399Y-107977361D01*
X132521399Y-107977361D02*
X134955001Y-105543759D01*
X134955001Y-105543759D02*
X135255000Y-105243760D01*
X135255000Y-105243760D02*
X144456231Y-114444991D01*
X131368239Y-101356999D02*
X135255000Y-105243760D01*
X180340000Y-99695000D02*
X180340000Y-97075000D01*
X180340000Y-97075000D02*
X180895000Y-96520000D01*
X173990000Y-99695000D02*
X173990000Y-96360000D01*
X173990000Y-96360000D02*
X174465000Y-95885000D01*
X146917410Y-125095000D02*
X165100000Y-125095000D01*
X144338040Y-123190000D02*
X145012410Y-123190000D01*
X145012410Y-123190000D02*
X146917410Y-125095000D01*
X145512231Y-104140000D02*
X145512231Y-102774191D01*
X145512231Y-106045000D02*
X145512231Y-104140000D01*
X138015980Y-80645000D02*
X137341610Y-80645000D01*
X137341610Y-80645000D02*
X135641180Y-78944570D01*
X135641180Y-78944570D02*
X131909218Y-78944570D01*
X131909218Y-78944570D02*
X131368239Y-79485549D01*
X131368239Y-79485549D02*
X131368239Y-101356999D01*
X144456231Y-114444991D02*
X144456231Y-116260991D01*
X135255000Y-85725000D02*
X137635000Y-85725000D01*
X137635000Y-85725000D02*
X139065000Y-84295000D01*
X138015980Y-80645000D02*
X138015980Y-83245980D01*
X138015980Y-83245980D02*
X139065000Y-84295000D01*
X145512231Y-102774191D02*
X144338040Y-101600000D01*
X137160000Y-99695000D02*
X137160000Y-95885000D01*
X137160000Y-95885000D02*
X137795000Y-95250000D01*
X137160000Y-99695000D02*
X144133470Y-99695000D01*
X144338040Y-99899570D02*
X144338040Y-101600000D01*
X144133470Y-99695000D02*
X144338040Y-99899570D01*
X144456231Y-116260991D02*
X144456231Y-119016231D01*
X144456231Y-119016231D02*
X144820000Y-119380000D01*
X144820000Y-119380000D02*
X144820000Y-122708040D01*
X144820000Y-122708040D02*
X144338040Y-123190000D01*
X139065000Y-84295000D02*
X142680000Y-84295000D01*
X142680000Y-84295000D02*
X144614999Y-82360001D01*
X149860000Y-83820000D02*
X148389991Y-82349991D01*
X153035000Y-83820000D02*
X149860000Y-83820000D01*
X155181400Y-83820000D02*
X153035000Y-83820000D01*
X157480000Y-84455000D02*
X155816400Y-84455000D01*
X155816400Y-84455000D02*
X155181400Y-83820000D01*
X148155009Y-81480009D02*
X148155009Y-81080009D01*
X148389991Y-81694217D02*
X148369217Y-81694217D01*
X148369217Y-81694217D02*
X148155009Y-81480009D01*
D25*
X146050000Y-85090000D02*
X146050000Y-86480000D01*
D24*
X146685000Y-84455000D02*
X146050000Y-85090000D01*
X146709998Y-84455000D02*
X144614999Y-82360001D01*
X144614999Y-82360001D02*
X144614999Y-81280000D01*
X148389991Y-82349991D02*
X148389991Y-81694217D01*
D25*
X169538460Y-90805000D02*
X163422520Y-90805000D01*
X163422520Y-90805000D02*
X163001960Y-91225560D01*
X163001960Y-91225560D02*
X163001960Y-92075000D01*
X169959020Y-92075000D02*
X169959020Y-91225560D01*
X169959020Y-91225560D02*
X169538460Y-90805000D01*
X162560000Y-84455000D02*
X162560000Y-85676314D01*
X162560000Y-85676314D02*
X158056315Y-90179999D01*
X158056315Y-90179999D02*
X154639999Y-90179999D01*
X154639999Y-90179999D02*
X154314999Y-90504999D01*
X154314999Y-90504999D02*
X154314999Y-91105001D01*
X154314999Y-91105001D02*
X154659997Y-91449999D01*
X154659997Y-91449999D02*
X161527519Y-91449999D01*
X161527519Y-91449999D02*
X162152520Y-92075000D01*
X162152520Y-92075000D02*
X163001960Y-92075000D01*
X146742231Y-113087231D02*
X152342769Y-113087231D01*
X134660000Y-99695000D02*
X134660000Y-96366960D01*
X134660000Y-96366960D02*
X133543040Y-95250000D01*
X147320000Y-119380000D02*
X147320000Y-121920000D01*
X147320000Y-121920000D02*
X148590000Y-123190000D01*
X146742231Y-116260991D02*
X146742231Y-118802231D01*
X146742231Y-118802231D02*
X147320000Y-119380000D01*
X134660000Y-101005000D02*
X146742231Y-113087231D01*
X146742231Y-113087231D02*
X146742231Y-116260991D01*
X134660000Y-99695000D02*
X134660000Y-101005000D01*
X133350000Y-90805000D02*
X133350000Y-95056960D01*
X133350000Y-95056960D02*
X133543040Y-95250000D01*
X147320000Y-86480000D02*
X147320000Y-85725000D01*
X147320000Y-85725000D02*
X147864990Y-85180010D01*
X147864990Y-85180010D02*
X152309990Y-85180010D01*
X165100000Y-92075000D02*
X165100000Y-93365000D01*
X165100000Y-93365000D02*
X162580000Y-95885000D01*
X162580000Y-95885000D02*
X162480000Y-95885000D01*
X167860980Y-92075000D02*
X167860980Y-95470980D01*
X167860980Y-95470980D02*
X168275000Y-95885000D01*
D24*
X155623686Y-81280000D02*
X149390001Y-81280000D01*
X157480000Y-81915000D02*
X156258686Y-81915000D01*
X156258686Y-81915000D02*
X155623686Y-81280000D01*
X137160000Y-92710000D02*
X132755000Y-88305000D01*
X132755000Y-88305000D02*
X132755000Y-85725000D01*
X141150000Y-92710000D02*
X137160000Y-92710000D01*
X141605000Y-90805000D02*
X141605000Y-92255000D01*
X141605000Y-92255000D02*
X141150000Y-92710000D01*
X133764020Y-80645000D02*
X133764020Y-84715980D01*
X133764020Y-84715980D02*
X132755000Y-85725000D01*
X143510000Y-90805000D02*
X141605000Y-90805000D01*
X143344999Y-87560001D02*
X143344999Y-86360000D01*
X143510000Y-90805000D02*
X143510000Y-87725002D01*
X143510000Y-87725002D02*
X143344999Y-87560001D01*
X151765000Y-86480000D02*
X150025001Y-86480000D01*
X158262202Y-86480000D02*
X151765000Y-86480000D01*
X160020000Y-84455000D02*
X159156401Y-85318599D01*
X159156401Y-85318599D02*
X159156401Y-85585801D01*
X159156401Y-85585801D02*
X158262202Y-86480000D01*
X160020000Y-81915000D02*
X158184999Y-80079999D01*
X158184999Y-80079999D02*
X147274999Y-80079999D01*
X147274999Y-80079999D02*
X147154999Y-80199999D01*
X147154999Y-80199999D02*
X147154999Y-81280000D01*
X145884999Y-80810001D02*
X145884999Y-81280000D01*
X145884999Y-80199999D02*
X145884999Y-80810001D01*
X145884999Y-80055772D02*
X145884999Y-80199999D01*
X162560000Y-81915000D02*
X159724989Y-79079989D01*
X159724989Y-79079989D02*
X146860782Y-79079989D01*
X146860782Y-79079989D02*
X145884999Y-80055772D01*
X143344999Y-80199999D02*
X143344999Y-81280000D01*
X165100000Y-81915000D02*
X161264979Y-78079979D01*
X161264979Y-78079979D02*
X145465019Y-78079979D01*
X145465019Y-78079979D02*
X143344999Y-80199999D01*
D25*
X167640000Y-84455000D02*
X168828601Y-83266399D01*
X168828601Y-83266399D02*
X170750529Y-83266399D01*
X171595870Y-83820000D02*
X172149471Y-83266399D01*
X173436399Y-83266399D02*
X173990000Y-83820000D01*
X170750529Y-83266399D02*
X171304130Y-83820000D01*
X171304130Y-83820000D02*
X171595870Y-83820000D01*
X172149471Y-83266399D02*
X173436399Y-83266399D01*
X173990000Y-83820000D02*
X173990000Y-86309904D01*
X173990000Y-86309904D02*
X181970001Y-94289905D01*
X181970001Y-94289905D02*
X181970001Y-107399999D01*
X181970001Y-107399999D02*
X180785000Y-108585000D01*
X172720000Y-93052098D02*
X172720000Y-101600000D01*
X167640000Y-81915000D02*
X166288601Y-83266399D01*
X166288601Y-83266399D02*
X166288601Y-86620699D01*
X166288601Y-86620699D02*
X172720000Y-93052098D01*
X174545000Y-92710000D02*
X174545000Y-88820000D01*
X174545000Y-88820000D02*
X170180000Y-84455000D01*
X172720000Y-84455000D02*
X172720000Y-85676314D01*
X172720000Y-85676314D02*
X178785000Y-91741314D01*
X178785000Y-91741314D02*
X178785000Y-102585000D01*
X172720000Y-81915000D02*
X173583599Y-82778599D01*
X180993071Y-89569999D02*
X184425001Y-89569999D01*
X171815760Y-117795000D02*
X172316140Y-117795000D01*
X173583599Y-82778599D02*
X174201671Y-82778599D01*
X174201671Y-82778599D02*
X174689471Y-83266399D01*
X184670001Y-89814999D02*
X184670001Y-119496409D01*
X170815000Y-118795760D02*
X171815760Y-117795000D01*
X174689471Y-83266399D02*
X175830529Y-83266399D01*
X175830529Y-83266399D02*
X176448601Y-83884471D01*
X176448601Y-83884471D02*
X176448601Y-85025529D01*
X170815000Y-120079342D02*
X170815000Y-118795760D01*
X176448601Y-85025529D02*
X180993071Y-89569999D01*
X184425001Y-89569999D02*
X184670001Y-89814999D01*
X184670001Y-119496409D02*
X181161400Y-123005010D01*
X181161400Y-123005010D02*
X173740668Y-123005010D01*
X173740668Y-123005010D02*
X170815000Y-120079342D01*
X175260000Y-84455000D02*
X175260000Y-85676314D01*
X175260000Y-85676314D02*
X180228686Y-90645000D01*
X180228686Y-90645000D02*
X182615000Y-90645000D01*
X182615000Y-90645000D02*
X183515000Y-90645000D01*
X146685000Y-92710000D02*
X155165101Y-101190101D01*
X155165101Y-101190101D02*
X155165101Y-115095101D01*
X155165101Y-115095101D02*
X158655000Y-118585000D01*
X137160000Y-90060000D02*
X137160000Y-88900000D01*
X138905000Y-90805000D02*
X137905000Y-90805000D01*
X137905000Y-90805000D02*
X137160000Y-90060000D01*
X138905000Y-90805000D02*
X138905000Y-87155000D01*
X138905000Y-87155000D02*
X139065000Y-86995000D01*
X183595000Y-96520000D02*
X183595000Y-107353872D01*
X183595000Y-107353872D02*
X181388862Y-109560010D01*
X181388862Y-109560010D02*
X180381138Y-109560010D01*
X179809990Y-105560010D02*
X180785000Y-104585000D01*
X180381138Y-109560010D02*
X179809990Y-108988862D01*
X179809990Y-108988862D02*
X179809990Y-105560010D01*
X183515000Y-93345000D02*
X183515000Y-96440000D01*
X183515000Y-96440000D02*
X183595000Y-96520000D01*
X177165000Y-103505000D02*
X178245000Y-104585000D01*
X178245000Y-104585000D02*
X178785000Y-104585000D01*
X177165000Y-95885000D02*
X177165000Y-103505000D01*
X177245000Y-92710000D02*
X177245000Y-95805000D01*
X177245000Y-95805000D02*
X177165000Y-95885000D01*
X148590000Y-86480000D02*
X148590000Y-87331410D01*
X177609990Y-116351400D02*
X177609990Y-117409990D01*
X177609990Y-117409990D02*
X178785000Y-118585000D01*
X148590000Y-87331410D02*
X177609990Y-116351400D01*
X171452820Y-107315000D02*
X172720000Y-107315000D01*
X163195000Y-99057180D02*
X171452820Y-107315000D01*
X165180000Y-95885000D02*
X165180000Y-96785000D01*
X165180000Y-96785000D02*
X163195000Y-98770000D01*
X163195000Y-98770000D02*
X163195000Y-99057180D01*
X170975000Y-101760000D02*
X175895000Y-106680000D01*
X170975000Y-95885000D02*
X170975000Y-101760000D01*
X149225000Y-86480000D02*
X149225000Y-87330000D01*
X178480000Y-116585000D02*
X178785000Y-116585000D01*
X149225000Y-87330000D02*
X178480000Y-116585000D01*
X154940000Y-123825000D02*
X184150000Y-123825000D01*
X154715091Y-123600091D02*
X154940000Y-123825000D01*
X144235008Y-91530008D02*
X154715091Y-102010091D01*
X154715091Y-102010091D02*
X154715091Y-123600091D01*
X144145000Y-86480000D02*
X144145000Y-87330000D01*
X144145000Y-87330000D02*
X144235008Y-87420008D01*
X144235008Y-87420008D02*
X144235008Y-91530008D01*
X147955000Y-86480000D02*
X147955000Y-87332820D01*
X147955000Y-87332820D02*
X177159980Y-116537800D01*
X177159980Y-118538852D02*
X178181138Y-119560010D01*
X177159980Y-116537800D02*
X177159980Y-118538852D01*
X178181138Y-119560010D02*
X179188862Y-119560010D01*
X179188862Y-119560010D02*
X179760010Y-118988862D01*
X179760010Y-118988862D02*
X179760010Y-115560010D01*
X179760010Y-115560010D02*
X178785000Y-114585000D01*
X156210000Y-93345000D02*
X175450000Y-112585000D01*
X175450000Y-112585000D02*
X178785000Y-112585000D01*
X145415000Y-86480000D02*
X145415000Y-87330000D01*
X145415000Y-87330000D02*
X151430000Y-93345000D01*
X151430000Y-93345000D02*
X151765000Y-93345000D01*
X176575760Y-122555000D02*
X173715760Y-119695000D01*
X173715760Y-119695000D02*
X172316140Y-119695000D01*
X180785000Y-110585000D02*
X181070000Y-110585000D01*
X181070000Y-110585000D02*
X182880000Y-112395000D01*
X182880000Y-120650000D02*
X180975000Y-122555000D01*
X182880000Y-112395000D02*
X182880000Y-120650000D01*
X180975000Y-122555000D02*
X176575760Y-122555000D01*
X157480000Y-93978590D02*
X172086410Y-108585000D01*
X172086410Y-108585000D02*
X178785000Y-108585000D01*
X155575000Y-92075000D02*
X155999264Y-92075000D01*
X155999264Y-92075000D02*
X157480000Y-93555736D01*
X157480000Y-93555736D02*
X157480000Y-93978590D01*
X146685000Y-86480000D02*
X146685000Y-87330000D01*
X146685000Y-87330000D02*
X151130000Y-91775000D01*
X151130000Y-91775000D02*
X151130000Y-92075000D01*
X144780000Y-86480000D02*
X144780000Y-87331410D01*
X144780000Y-87331410D02*
X156508590Y-99060000D01*
X156508590Y-99060000D02*
X159045770Y-99060000D01*
X159045770Y-99060000D02*
X176709970Y-116724200D01*
X180381138Y-119560010D02*
X181388862Y-119560010D01*
X176709970Y-116724200D02*
X176709970Y-120088842D01*
X176709970Y-120088842D02*
X178181138Y-121560010D01*
X178181138Y-121560010D02*
X179188862Y-121560010D01*
X179760010Y-120988862D02*
X179760010Y-120181138D01*
X181388862Y-119560010D02*
X181960010Y-118988862D01*
X179188862Y-121560010D02*
X179760010Y-120988862D01*
X179760010Y-120181138D02*
X180381138Y-119560010D01*
X181960010Y-118988862D02*
X181960010Y-113760010D01*
X181960010Y-113760010D02*
X180785000Y-112585000D01*
D26*
G36*
X185293000Y-89405704D02*
X185207402Y-89277598D01*
X184962402Y-89032598D01*
X184715840Y-88867851D01*
X184425001Y-88809999D01*
X181307873Y-88809999D01*
X178367876Y-85870002D01*
X178373489Y-85868885D01*
X178859670Y-85544029D01*
X179070000Y-85229248D01*
X179280330Y-85544029D01*
X179766511Y-85868885D01*
X180340000Y-85982959D01*
X180913489Y-85868885D01*
X181399670Y-85544029D01*
X181724526Y-85057848D01*
X181838600Y-84484359D01*
X181838600Y-84425641D01*
X181724526Y-83852152D01*
X181399670Y-83365971D01*
X181128828Y-83185000D01*
X181399670Y-83004029D01*
X181724526Y-82517848D01*
X181838600Y-81944359D01*
X181838600Y-81885641D01*
X181724526Y-81312152D01*
X181399670Y-80825971D01*
X180913489Y-80501115D01*
X180340000Y-80387041D01*
X179766511Y-80501115D01*
X179280330Y-80825971D01*
X179070000Y-81140752D01*
X178859670Y-80825971D01*
X178373489Y-80501115D01*
X177800000Y-80387041D01*
X177226511Y-80501115D01*
X176740330Y-80825971D01*
X176530000Y-81140752D01*
X176319670Y-80825971D01*
X175833489Y-80501115D01*
X175260000Y-80387041D01*
X174686511Y-80501115D01*
X174200330Y-80825971D01*
X173990000Y-81140752D01*
X173779670Y-80825971D01*
X173293489Y-80501115D01*
X172720000Y-80387041D01*
X172146511Y-80501115D01*
X171660330Y-80825971D01*
X171450000Y-81140752D01*
X171239670Y-80825971D01*
X170753489Y-80501115D01*
X170180000Y-80387041D01*
X169606511Y-80501115D01*
X169120330Y-80825971D01*
X168910000Y-81140752D01*
X168699670Y-80825971D01*
X168213489Y-80501115D01*
X167640000Y-80387041D01*
X167066511Y-80501115D01*
X166580330Y-80825971D01*
X166370000Y-81140752D01*
X166159670Y-80825971D01*
X165673489Y-80501115D01*
X165100000Y-80387041D01*
X165046412Y-80397700D01*
X161996835Y-77348123D01*
X161661056Y-77123764D01*
X161264979Y-77044978D01*
X161264974Y-77044979D01*
X145465024Y-77044979D01*
X145465019Y-77044978D01*
X145068942Y-77123764D01*
X144733163Y-77348123D01*
X144733161Y-77348126D01*
X142613143Y-79468143D01*
X142388784Y-79803922D01*
X142319057Y-80154459D01*
X142223559Y-80215910D01*
X142078569Y-80428110D01*
X142027560Y-80680000D01*
X142027560Y-81880000D01*
X142071838Y-82115317D01*
X142210910Y-82331441D01*
X142423110Y-82476431D01*
X142675000Y-82527440D01*
X143075000Y-82527440D01*
X143196814Y-82504519D01*
X143310000Y-82527440D01*
X143710000Y-82527440D01*
X143805390Y-82509491D01*
X143818690Y-82515000D01*
X143886250Y-82515000D01*
X143911777Y-82489473D01*
X143945317Y-82483162D01*
X144152085Y-82350110D01*
X144220301Y-82418327D01*
X144368437Y-82479687D01*
X144403750Y-82515000D01*
X144521250Y-82515000D01*
X144556563Y-82479687D01*
X144704699Y-82418327D01*
X144775074Y-82347952D01*
X144963110Y-82476431D01*
X145009594Y-82485844D01*
X145038750Y-82515000D01*
X145106310Y-82515000D01*
X145121828Y-82508572D01*
X145215000Y-82527440D01*
X145615000Y-82527440D01*
X145736814Y-82504519D01*
X145850000Y-82527440D01*
X146250000Y-82527440D01*
X146371814Y-82504519D01*
X146485000Y-82527440D01*
X146885000Y-82527440D01*
X147006814Y-82504519D01*
X147120000Y-82527440D01*
X147520000Y-82527440D01*
X147615390Y-82509491D01*
X147628690Y-82515000D01*
X147696250Y-82515000D01*
X147721777Y-82489473D01*
X147755317Y-82483162D01*
X147962085Y-82350110D01*
X148030301Y-82418327D01*
X148178437Y-82479687D01*
X148213750Y-82515000D01*
X148331250Y-82515000D01*
X148366563Y-82479687D01*
X148514699Y-82418327D01*
X148585074Y-82347952D01*
X148773110Y-82476431D01*
X148819594Y-82485844D01*
X148848750Y-82515000D01*
X148916310Y-82515000D01*
X148931828Y-82508572D01*
X149025000Y-82527440D01*
X149425000Y-82527440D01*
X149546814Y-82504519D01*
X149660000Y-82527440D01*
X150060000Y-82527440D01*
X150295317Y-82483162D01*
X150511441Y-82344090D01*
X150531317Y-82315000D01*
X155194974Y-82315000D01*
X155526828Y-82646853D01*
X155526830Y-82646856D01*
X155851489Y-82863785D01*
X155862609Y-82871215D01*
X156258686Y-82950001D01*
X156258691Y-82950000D01*
X156384229Y-82950000D01*
X156410526Y-82989356D01*
X156256701Y-83053073D01*
X156078073Y-83231702D01*
X155981400Y-83465091D01*
X155981400Y-84169250D01*
X156140150Y-84328000D01*
X157353000Y-84328000D01*
X157353000Y-84308000D01*
X157607000Y-84308000D01*
X157607000Y-84328000D01*
X157627000Y-84328000D01*
X157627000Y-84582000D01*
X157607000Y-84582000D01*
X157607000Y-84602000D01*
X157353000Y-84602000D01*
X157353000Y-84582000D01*
X156140150Y-84582000D01*
X155981400Y-84740750D01*
X155981400Y-85444909D01*
X155981438Y-85445000D01*
X153212360Y-85445000D01*
X153244828Y-85366809D01*
X153245152Y-84994843D01*
X153103107Y-84651067D01*
X152840317Y-84387818D01*
X152496789Y-84245172D01*
X152124823Y-84244848D01*
X151781047Y-84386893D01*
X151747872Y-84420010D01*
X151289954Y-84420010D01*
X151426217Y-84216077D01*
X151505002Y-83820000D01*
X151426217Y-83423923D01*
X151201858Y-83088144D01*
X150866079Y-82863785D01*
X150470002Y-82785000D01*
X146685000Y-82785000D01*
X146288923Y-82863785D01*
X145953144Y-83088144D01*
X145728785Y-83423923D01*
X145650000Y-83820000D01*
X145728785Y-84216077D01*
X145953144Y-84551856D01*
X146288923Y-84776215D01*
X146685000Y-84855000D01*
X147115198Y-84855000D01*
X146782599Y-85187599D01*
X146752557Y-85232560D01*
X146485000Y-85232560D01*
X146389610Y-85250509D01*
X146376310Y-85245000D01*
X146308750Y-85245000D01*
X146283223Y-85270527D01*
X146249683Y-85276838D01*
X146047473Y-85406956D01*
X145866890Y-85283569D01*
X145820406Y-85274156D01*
X145791250Y-85245000D01*
X145723690Y-85245000D01*
X145708172Y-85251428D01*
X145615000Y-85232560D01*
X145215000Y-85232560D01*
X145093186Y-85255481D01*
X144980000Y-85232560D01*
X144580000Y-85232560D01*
X144458186Y-85255481D01*
X144345000Y-85232560D01*
X143945000Y-85232560D01*
X143823186Y-85255481D01*
X143710000Y-85232560D01*
X143310000Y-85232560D01*
X143188186Y-85255481D01*
X143075000Y-85232560D01*
X142675000Y-85232560D01*
X142439683Y-85276838D01*
X142223559Y-85415910D01*
X142078569Y-85628110D01*
X142027560Y-85880000D01*
X142027560Y-87080000D01*
X142071838Y-87315317D01*
X142210910Y-87531441D01*
X142319009Y-87605302D01*
X142388784Y-87956078D01*
X142475000Y-88085110D01*
X142475000Y-89531861D01*
X142355000Y-89507560D01*
X140855000Y-89507560D01*
X140619683Y-89551838D01*
X140403559Y-89690910D01*
X140258569Y-89903110D01*
X140255919Y-89916197D01*
X140119090Y-89703559D01*
X139906890Y-89558569D01*
X139665000Y-89509585D01*
X139665000Y-88392440D01*
X139715000Y-88392440D01*
X139950317Y-88348162D01*
X140166441Y-88209090D01*
X140311431Y-87996890D01*
X140362440Y-87745000D01*
X140362440Y-86245000D01*
X140318162Y-86009683D01*
X140179090Y-85793559D01*
X139966890Y-85648569D01*
X139933510Y-85641809D01*
X140074699Y-85583327D01*
X140253327Y-85404698D01*
X140350000Y-85171309D01*
X140350000Y-84580750D01*
X140191250Y-84422000D01*
X139192000Y-84422000D01*
X139192000Y-84442000D01*
X138938000Y-84442000D01*
X138938000Y-84422000D01*
X137938750Y-84422000D01*
X137780000Y-84580750D01*
X137780000Y-85171309D01*
X137876673Y-85404698D01*
X138055301Y-85583327D01*
X138191287Y-85639654D01*
X138179683Y-85641838D01*
X137963559Y-85780910D01*
X137818569Y-85993110D01*
X137767560Y-86245000D01*
X137767560Y-87745000D01*
X137811838Y-87980317D01*
X137950910Y-88196441D01*
X138145000Y-88329057D01*
X138145000Y-89509442D01*
X137920000Y-89551778D01*
X137920000Y-89462463D01*
X137952192Y-89430327D01*
X138094838Y-89086799D01*
X138095162Y-88714833D01*
X137953117Y-88371057D01*
X137690327Y-88107808D01*
X137346799Y-87965162D01*
X136974833Y-87964838D01*
X136631057Y-88106883D01*
X136367808Y-88369673D01*
X136225162Y-88713201D01*
X136224838Y-89085167D01*
X136366883Y-89428943D01*
X136400000Y-89462118D01*
X136400000Y-90060000D01*
X136457852Y-90350839D01*
X136622599Y-90597401D01*
X137367599Y-91342401D01*
X137507560Y-91435920D01*
X137507560Y-91455000D01*
X137539742Y-91626031D01*
X133790000Y-87876288D01*
X133790000Y-86921192D01*
X133956441Y-86814090D01*
X134002969Y-86745994D01*
X134145302Y-86888327D01*
X134378691Y-86985000D01*
X134969250Y-86985000D01*
X135128000Y-86826250D01*
X135128000Y-85852000D01*
X135382000Y-85852000D01*
X135382000Y-86826250D01*
X135540750Y-86985000D01*
X136131309Y-86985000D01*
X136364698Y-86888327D01*
X136543327Y-86709699D01*
X136640000Y-86476310D01*
X136640000Y-86010750D01*
X136481250Y-85852000D01*
X135382000Y-85852000D01*
X135128000Y-85852000D01*
X135108000Y-85852000D01*
X135108000Y-85598000D01*
X135128000Y-85598000D01*
X135128000Y-84623750D01*
X135382000Y-84623750D01*
X135382000Y-85598000D01*
X136481250Y-85598000D01*
X136640000Y-85439250D01*
X136640000Y-84973690D01*
X136543327Y-84740301D01*
X136364698Y-84561673D01*
X136131309Y-84465000D01*
X135540750Y-84465000D01*
X135382000Y-84623750D01*
X135128000Y-84623750D01*
X134969250Y-84465000D01*
X134799020Y-84465000D01*
X134799020Y-83418691D01*
X137780000Y-83418691D01*
X137780000Y-84009250D01*
X137938750Y-84168000D01*
X138938000Y-84168000D01*
X138938000Y-83068750D01*
X139192000Y-83068750D01*
X139192000Y-84168000D01*
X140191250Y-84168000D01*
X140350000Y-84009250D01*
X140350000Y-83418691D01*
X140253327Y-83185302D01*
X140074699Y-83006673D01*
X139841310Y-82910000D01*
X139350750Y-82910000D01*
X139192000Y-83068750D01*
X138938000Y-83068750D01*
X138779250Y-82910000D01*
X138288690Y-82910000D01*
X138055301Y-83006673D01*
X137876673Y-83185302D01*
X137780000Y-83418691D01*
X134799020Y-83418691D01*
X134799020Y-82192870D01*
X135338820Y-82192870D01*
X135574137Y-82148592D01*
X135790261Y-82009520D01*
X135887279Y-81867530D01*
X135902853Y-81905129D01*
X136081482Y-82083757D01*
X136314871Y-82180430D01*
X137730230Y-82180430D01*
X137888980Y-82021680D01*
X137888980Y-80772000D01*
X138142980Y-80772000D01*
X138142980Y-82021680D01*
X138301730Y-82180430D01*
X139717089Y-82180430D01*
X139950478Y-82083757D01*
X140129107Y-81905129D01*
X140225780Y-81671740D01*
X140225780Y-80930750D01*
X140067030Y-80772000D01*
X138142980Y-80772000D01*
X137888980Y-80772000D01*
X137868980Y-80772000D01*
X137868980Y-80518000D01*
X137888980Y-80518000D01*
X137888980Y-79268320D01*
X138142980Y-79268320D01*
X138142980Y-80518000D01*
X140067030Y-80518000D01*
X140225780Y-80359250D01*
X140225780Y-79618260D01*
X140129107Y-79384871D01*
X139950478Y-79206243D01*
X139717089Y-79109570D01*
X138301730Y-79109570D01*
X138142980Y-79268320D01*
X137888980Y-79268320D01*
X137730230Y-79109570D01*
X136314871Y-79109570D01*
X136081482Y-79206243D01*
X135902853Y-79384871D01*
X135886832Y-79423548D01*
X135802910Y-79293129D01*
X135590710Y-79148139D01*
X135338820Y-79097130D01*
X132189220Y-79097130D01*
X131953903Y-79141408D01*
X131737779Y-79280480D01*
X131592789Y-79492680D01*
X131541780Y-79744570D01*
X131541780Y-81545430D01*
X131586058Y-81780747D01*
X131725130Y-81996871D01*
X131937330Y-82141861D01*
X132189220Y-82192870D01*
X132729020Y-82192870D01*
X132729020Y-84287269D01*
X132563729Y-84452560D01*
X132005000Y-84452560D01*
X131769683Y-84496838D01*
X131553559Y-84635910D01*
X131408569Y-84848110D01*
X131357560Y-85100000D01*
X131357560Y-86350000D01*
X131401838Y-86585317D01*
X131540910Y-86801441D01*
X131720000Y-86923808D01*
X131720000Y-88304995D01*
X131719999Y-88305000D01*
X131798785Y-88701077D01*
X132023144Y-89036856D01*
X132946386Y-89960098D01*
X132821057Y-90011883D01*
X132557808Y-90274673D01*
X132415162Y-90618201D01*
X132414838Y-90990167D01*
X132556883Y-91333943D01*
X132590000Y-91367118D01*
X132590000Y-93702130D01*
X131968240Y-93702130D01*
X131732923Y-93746408D01*
X131516799Y-93885480D01*
X131371809Y-94097680D01*
X131320800Y-94349570D01*
X131320800Y-96150430D01*
X131365078Y-96385747D01*
X131504150Y-96601871D01*
X131716350Y-96746861D01*
X131968240Y-96797870D01*
X133900000Y-96797870D01*
X133900000Y-98424442D01*
X133674683Y-98466838D01*
X133458559Y-98605910D01*
X133313569Y-98818110D01*
X133262560Y-99070000D01*
X133262560Y-100320000D01*
X133306838Y-100555317D01*
X133445910Y-100771441D01*
X133658110Y-100916431D01*
X133900000Y-100965415D01*
X133900000Y-101005000D01*
X133957852Y-101295839D01*
X134122599Y-101542401D01*
X145982231Y-113402033D01*
X145982231Y-114652564D01*
X145782790Y-114780901D01*
X145637800Y-114993101D01*
X145599231Y-115183560D01*
X145599231Y-115118681D01*
X145502558Y-114885292D01*
X145323929Y-114706664D01*
X145090540Y-114609991D01*
X144741981Y-114609991D01*
X144583231Y-114768741D01*
X144583231Y-116133991D01*
X144603231Y-116133991D01*
X144603231Y-116387991D01*
X144583231Y-116387991D01*
X144583231Y-117753241D01*
X144741981Y-117911991D01*
X145090540Y-117911991D01*
X145323929Y-117815318D01*
X145502558Y-117636690D01*
X145599231Y-117403301D01*
X145599231Y-117343104D01*
X145631069Y-117512308D01*
X145770141Y-117728432D01*
X145982231Y-117873347D01*
X145982231Y-118269206D01*
X145929698Y-118216673D01*
X145696309Y-118120000D01*
X145105750Y-118120000D01*
X144947000Y-118278750D01*
X144947000Y-119253000D01*
X144967000Y-119253000D01*
X144967000Y-119507000D01*
X144947000Y-119507000D01*
X144947000Y-120481250D01*
X145105750Y-120640000D01*
X145696309Y-120640000D01*
X145929698Y-120543327D01*
X146070936Y-120402090D01*
X146105910Y-120456441D01*
X146318110Y-120601431D01*
X146560000Y-120650415D01*
X146560000Y-121830981D01*
X146466741Y-121967470D01*
X146451167Y-121929871D01*
X146272538Y-121751243D01*
X146039149Y-121654570D01*
X144623790Y-121654570D01*
X144465040Y-121813320D01*
X144465040Y-123063000D01*
X144485040Y-123063000D01*
X144485040Y-123317000D01*
X144465040Y-123317000D01*
X144465040Y-124566680D01*
X144623790Y-124725430D01*
X146039149Y-124725430D01*
X146272538Y-124628757D01*
X146451167Y-124450129D01*
X146467188Y-124411452D01*
X146551110Y-124541871D01*
X146763310Y-124686861D01*
X147015200Y-124737870D01*
X150164800Y-124737870D01*
X150400117Y-124693592D01*
X150616241Y-124554520D01*
X150761231Y-124342320D01*
X150812240Y-124090430D01*
X150812240Y-122289570D01*
X150767962Y-122054253D01*
X150628890Y-121838129D01*
X150416690Y-121693139D01*
X150164800Y-121642130D01*
X148116932Y-121642130D01*
X148080000Y-121605198D01*
X148080000Y-120650558D01*
X148305317Y-120608162D01*
X148521441Y-120469090D01*
X148666431Y-120256890D01*
X148717440Y-120005000D01*
X148717440Y-118755000D01*
X148673162Y-118519683D01*
X148534090Y-118303559D01*
X148321890Y-118158569D01*
X148070000Y-118107560D01*
X147502231Y-118107560D01*
X147502231Y-117869418D01*
X147701672Y-117741081D01*
X147846662Y-117528881D01*
X147884774Y-117340677D01*
X147917069Y-117512308D01*
X148056141Y-117728432D01*
X148268341Y-117873422D01*
X148520231Y-117924431D01*
X149536231Y-117924431D01*
X149771548Y-117880153D01*
X149987672Y-117741081D01*
X150132662Y-117528881D01*
X150158670Y-117400452D01*
X150770619Y-118012401D01*
X151017181Y-118177148D01*
X151308020Y-118235000D01*
X152472537Y-118235000D01*
X152504673Y-118267192D01*
X152848201Y-118409838D01*
X153220167Y-118410162D01*
X153563943Y-118268117D01*
X153827192Y-118005327D01*
X153955091Y-117697314D01*
X153955091Y-123600091D01*
X154012943Y-123890930D01*
X154177690Y-124137492D01*
X154402599Y-124362401D01*
X154649160Y-124527148D01*
X154940000Y-124585000D01*
X183587537Y-124585000D01*
X183619673Y-124617192D01*
X183963201Y-124759838D01*
X184335167Y-124760162D01*
X184678943Y-124618117D01*
X184942192Y-124355327D01*
X185084838Y-124011799D01*
X185085162Y-123639833D01*
X184943117Y-123296057D01*
X184680327Y-123032808D01*
X184336799Y-122890162D01*
X183964833Y-122889838D01*
X183621057Y-123031883D01*
X183587882Y-123065000D01*
X182176212Y-123065000D01*
X185207402Y-120033810D01*
X185293000Y-119905703D01*
X185293000Y-130048000D01*
X130302000Y-130048000D01*
X130302000Y-128057815D01*
X131849630Y-128057815D01*
X132173980Y-128842800D01*
X132774041Y-129443909D01*
X133558459Y-129769628D01*
X134407815Y-129770370D01*
X135192800Y-129446020D01*
X135793909Y-128845959D01*
X136119628Y-128061541D01*
X136119631Y-128057815D01*
X178839630Y-128057815D01*
X179163980Y-128842800D01*
X179764041Y-129443909D01*
X180548459Y-129769628D01*
X181397815Y-129770370D01*
X182182800Y-129446020D01*
X182783909Y-128845959D01*
X183109628Y-128061541D01*
X183110370Y-127212185D01*
X182786020Y-126427200D01*
X182185959Y-125826091D01*
X181401541Y-125500372D01*
X180552185Y-125499630D01*
X179767200Y-125823980D01*
X179166091Y-126424041D01*
X178840372Y-127208459D01*
X178839630Y-128057815D01*
X136119631Y-128057815D01*
X136120370Y-127212185D01*
X135796020Y-126427200D01*
X135195959Y-125826091D01*
X134411541Y-125500372D01*
X133562185Y-125499630D01*
X132777200Y-125823980D01*
X132176091Y-126424041D01*
X131850372Y-127208459D01*
X131849630Y-128057815D01*
X130302000Y-128057815D01*
X130302000Y-123475750D01*
X142128240Y-123475750D01*
X142128240Y-124216740D01*
X142224913Y-124450129D01*
X142403542Y-124628757D01*
X142636931Y-124725430D01*
X144052290Y-124725430D01*
X144211040Y-124566680D01*
X144211040Y-123317000D01*
X142286990Y-123317000D01*
X142128240Y-123475750D01*
X130302000Y-123475750D01*
X130302000Y-118745000D01*
X132457041Y-118745000D01*
X132571115Y-119318489D01*
X132895971Y-119804670D01*
X133210752Y-120015000D01*
X132895971Y-120225330D01*
X132571115Y-120711511D01*
X132457041Y-121285000D01*
X132571115Y-121858489D01*
X132895971Y-122344670D01*
X133382152Y-122669526D01*
X133955641Y-122783600D01*
X134014359Y-122783600D01*
X134587848Y-122669526D01*
X135074029Y-122344670D01*
X135255000Y-122073828D01*
X135435971Y-122344670D01*
X135922152Y-122669526D01*
X136495641Y-122783600D01*
X136554359Y-122783600D01*
X137127848Y-122669526D01*
X137614029Y-122344670D01*
X137735243Y-122163260D01*
X142128240Y-122163260D01*
X142128240Y-122904250D01*
X142286990Y-123063000D01*
X144211040Y-123063000D01*
X144211040Y-121813320D01*
X144052290Y-121654570D01*
X142636931Y-121654570D01*
X142403542Y-121751243D01*
X142224913Y-121929871D01*
X142128240Y-122163260D01*
X137735243Y-122163260D01*
X137938885Y-121858489D01*
X138052959Y-121285000D01*
X137938885Y-120711511D01*
X137614029Y-120225330D01*
X137299248Y-120015000D01*
X137614029Y-119804670D01*
X137706852Y-119665750D01*
X143435000Y-119665750D01*
X143435000Y-120131310D01*
X143531673Y-120364699D01*
X143710302Y-120543327D01*
X143943691Y-120640000D01*
X144534250Y-120640000D01*
X144693000Y-120481250D01*
X144693000Y-119507000D01*
X143593750Y-119507000D01*
X143435000Y-119665750D01*
X137706852Y-119665750D01*
X137938885Y-119318489D01*
X138052959Y-118745000D01*
X138029824Y-118628690D01*
X143435000Y-118628690D01*
X143435000Y-119094250D01*
X143593750Y-119253000D01*
X144693000Y-119253000D01*
X144693000Y-118278750D01*
X144534250Y-118120000D01*
X143943691Y-118120000D01*
X143710302Y-118216673D01*
X143531673Y-118395301D01*
X143435000Y-118628690D01*
X138029824Y-118628690D01*
X137938885Y-118171511D01*
X137614029Y-117685330D01*
X137299248Y-117475000D01*
X137614029Y-117264670D01*
X137938885Y-116778489D01*
X137984982Y-116546741D01*
X143313231Y-116546741D01*
X143313231Y-117403301D01*
X143409904Y-117636690D01*
X143588533Y-117815318D01*
X143821922Y-117911991D01*
X144170481Y-117911991D01*
X144329231Y-117753241D01*
X144329231Y-116387991D01*
X143471981Y-116387991D01*
X143313231Y-116546741D01*
X137984982Y-116546741D01*
X138052959Y-116205000D01*
X137938885Y-115631511D01*
X137614029Y-115145330D01*
X137574146Y-115118681D01*
X143313231Y-115118681D01*
X143313231Y-115975241D01*
X143471981Y-116133991D01*
X144329231Y-116133991D01*
X144329231Y-114768741D01*
X144170481Y-114609991D01*
X143821922Y-114609991D01*
X143588533Y-114706664D01*
X143409904Y-114885292D01*
X143313231Y-115118681D01*
X137574146Y-115118681D01*
X137299248Y-114935000D01*
X137614029Y-114724670D01*
X137938885Y-114238489D01*
X138052959Y-113665000D01*
X137938885Y-113091511D01*
X137614029Y-112605330D01*
X137127848Y-112280474D01*
X136554359Y-112166400D01*
X136495641Y-112166400D01*
X135922152Y-112280474D01*
X135456558Y-112591574D01*
X135451762Y-112566083D01*
X135312690Y-112349959D01*
X135100490Y-112204969D01*
X134848600Y-112153960D01*
X133121400Y-112153960D01*
X132886083Y-112198238D01*
X132669959Y-112337310D01*
X132524969Y-112549510D01*
X132473960Y-112801400D01*
X132473960Y-114528600D01*
X132518238Y-114763917D01*
X132657310Y-114980041D01*
X132869510Y-115125031D01*
X132963375Y-115144039D01*
X132702312Y-115430053D01*
X132530042Y-115845974D01*
X132651183Y-116078000D01*
X133858000Y-116078000D01*
X133858000Y-116058000D01*
X134112000Y-116058000D01*
X134112000Y-116078000D01*
X134132000Y-116078000D01*
X134132000Y-116332000D01*
X134112000Y-116332000D01*
X134112000Y-116352000D01*
X133858000Y-116352000D01*
X133858000Y-116332000D01*
X132651183Y-116332000D01*
X132530042Y-116564026D01*
X132702312Y-116979947D01*
X133096510Y-117411821D01*
X133219228Y-117469336D01*
X132895971Y-117685330D01*
X132571115Y-118171511D01*
X132457041Y-118745000D01*
X130302000Y-118745000D01*
X130302000Y-74717815D01*
X131849630Y-74717815D01*
X132173980Y-75502800D01*
X132774041Y-76103909D01*
X133558459Y-76429628D01*
X134407815Y-76430370D01*
X135192800Y-76106020D01*
X135793909Y-75505959D01*
X136119628Y-74721541D01*
X136119631Y-74717815D01*
X178839630Y-74717815D01*
X179163980Y-75502800D01*
X179764041Y-76103909D01*
X180548459Y-76429628D01*
X181397815Y-76430370D01*
X182182800Y-76106020D01*
X182783909Y-75505959D01*
X183109628Y-74721541D01*
X183110370Y-73872185D01*
X182786020Y-73087200D01*
X182185959Y-72486091D01*
X181401541Y-72160372D01*
X180552185Y-72159630D01*
X179767200Y-72483980D01*
X179166091Y-73084041D01*
X178840372Y-73868459D01*
X178839630Y-74717815D01*
X136119631Y-74717815D01*
X136120370Y-73872185D01*
X135796020Y-73087200D01*
X135195959Y-72486091D01*
X134411541Y-72160372D01*
X133562185Y-72159630D01*
X132777200Y-72483980D01*
X132176091Y-73084041D01*
X131850372Y-73868459D01*
X131849630Y-74717815D01*
X130302000Y-74717815D01*
X130302000Y-71247000D01*
X185293000Y-71247000D01*
X185293000Y-89405704D01*
X185293000Y-89405704D01*
G37*
X185293000Y-89405704D02*
X185207402Y-89277598D01*
X184962402Y-89032598D01*
X184715840Y-88867851D01*
X184425001Y-88809999D01*
X181307873Y-88809999D01*
X178367876Y-85870002D01*
X178373489Y-85868885D01*
X178859670Y-85544029D01*
X179070000Y-85229248D01*
X179280330Y-85544029D01*
X179766511Y-85868885D01*
X180340000Y-85982959D01*
X180913489Y-85868885D01*
X181399670Y-85544029D01*
X181724526Y-85057848D01*
X181838600Y-84484359D01*
X181838600Y-84425641D01*
X181724526Y-83852152D01*
X181399670Y-83365971D01*
X181128828Y-83185000D01*
X181399670Y-83004029D01*
X181724526Y-82517848D01*
X181838600Y-81944359D01*
X181838600Y-81885641D01*
X181724526Y-81312152D01*
X181399670Y-80825971D01*
X180913489Y-80501115D01*
X180340000Y-80387041D01*
X179766511Y-80501115D01*
X179280330Y-80825971D01*
X179070000Y-81140752D01*
X178859670Y-80825971D01*
X178373489Y-80501115D01*
X177800000Y-80387041D01*
X177226511Y-80501115D01*
X176740330Y-80825971D01*
X176530000Y-81140752D01*
X176319670Y-80825971D01*
X175833489Y-80501115D01*
X175260000Y-80387041D01*
X174686511Y-80501115D01*
X174200330Y-80825971D01*
X173990000Y-81140752D01*
X173779670Y-80825971D01*
X173293489Y-80501115D01*
X172720000Y-80387041D01*
X172146511Y-80501115D01*
X171660330Y-80825971D01*
X171450000Y-81140752D01*
X171239670Y-80825971D01*
X170753489Y-80501115D01*
X170180000Y-80387041D01*
X169606511Y-80501115D01*
X169120330Y-80825971D01*
X168910000Y-81140752D01*
X168699670Y-80825971D01*
X168213489Y-80501115D01*
X167640000Y-80387041D01*
X167066511Y-80501115D01*
X166580330Y-80825971D01*
X166370000Y-81140752D01*
X166159670Y-80825971D01*
X165673489Y-80501115D01*
X165100000Y-80387041D01*
X165046412Y-80397700D01*
X161996835Y-77348123D01*
X161661056Y-77123764D01*
X161264979Y-77044978D01*
X161264974Y-77044979D01*
X145465024Y-77044979D01*
X145465019Y-77044978D01*
X145068942Y-77123764D01*
X144733163Y-77348123D01*
X144733161Y-77348126D01*
X142613143Y-79468143D01*
X142388784Y-79803922D01*
X142319057Y-80154459D01*
X142223559Y-80215910D01*
X142078569Y-80428110D01*
X142027560Y-80680000D01*
X142027560Y-81880000D01*
X142071838Y-82115317D01*
X142210910Y-82331441D01*
X142423110Y-82476431D01*
X142675000Y-82527440D01*
X143075000Y-82527440D01*
X143196814Y-82504519D01*
X143310000Y-82527440D01*
X143710000Y-82527440D01*
X143805390Y-82509491D01*
X143818690Y-82515000D01*
X143886250Y-82515000D01*
X143911777Y-82489473D01*
X143945317Y-82483162D01*
X144152085Y-82350110D01*
X144220301Y-82418327D01*
X144368437Y-82479687D01*
X144403750Y-82515000D01*
X144521250Y-82515000D01*
X144556563Y-82479687D01*
X144704699Y-82418327D01*
X144775074Y-82347952D01*
X144963110Y-82476431D01*
X145009594Y-82485844D01*
X145038750Y-82515000D01*
X145106310Y-82515000D01*
X145121828Y-82508572D01*
X145215000Y-82527440D01*
X145615000Y-82527440D01*
X145736814Y-82504519D01*
X145850000Y-82527440D01*
X146250000Y-82527440D01*
X146371814Y-82504519D01*
X146485000Y-82527440D01*
X146885000Y-82527440D01*
X147006814Y-82504519D01*
X147120000Y-82527440D01*
X147520000Y-82527440D01*
X147615390Y-82509491D01*
X147628690Y-82515000D01*
X147696250Y-82515000D01*
X147721777Y-82489473D01*
X147755317Y-82483162D01*
X147962085Y-82350110D01*
X148030301Y-82418327D01*
X148178437Y-82479687D01*
X148213750Y-82515000D01*
X148331250Y-82515000D01*
X148366563Y-82479687D01*
X148514699Y-82418327D01*
X148585074Y-82347952D01*
X148773110Y-82476431D01*
X148819594Y-82485844D01*
X148848750Y-82515000D01*
X148916310Y-82515000D01*
X148931828Y-82508572D01*
X149025000Y-82527440D01*
X149425000Y-82527440D01*
X149546814Y-82504519D01*
X149660000Y-82527440D01*
X150060000Y-82527440D01*
X150295317Y-82483162D01*
X150511441Y-82344090D01*
X150531317Y-82315000D01*
X155194974Y-82315000D01*
X155526828Y-82646853D01*
X155526830Y-82646856D01*
X155851489Y-82863785D01*
X155862609Y-82871215D01*
X156258686Y-82950001D01*
X156258691Y-82950000D01*
X156384229Y-82950000D01*
X156410526Y-82989356D01*
X156256701Y-83053073D01*
X156078073Y-83231702D01*
X155981400Y-83465091D01*
X155981400Y-84169250D01*
X156140150Y-84328000D01*
X157353000Y-84328000D01*
X157353000Y-84308000D01*
X157607000Y-84308000D01*
X157607000Y-84328000D01*
X157627000Y-84328000D01*
X157627000Y-84582000D01*
X157607000Y-84582000D01*
X157607000Y-84602000D01*
X157353000Y-84602000D01*
X157353000Y-84582000D01*
X156140150Y-84582000D01*
X155981400Y-84740750D01*
X155981400Y-85444909D01*
X155981438Y-85445000D01*
X153212360Y-85445000D01*
X153244828Y-85366809D01*
X153245152Y-84994843D01*
X153103107Y-84651067D01*
X152840317Y-84387818D01*
X152496789Y-84245172D01*
X152124823Y-84244848D01*
X151781047Y-84386893D01*
X151747872Y-84420010D01*
X151289954Y-84420010D01*
X151426217Y-84216077D01*
X151505002Y-83820000D01*
X151426217Y-83423923D01*
X151201858Y-83088144D01*
X150866079Y-82863785D01*
X150470002Y-82785000D01*
X146685000Y-82785000D01*
X146288923Y-82863785D01*
X145953144Y-83088144D01*
X145728785Y-83423923D01*
X145650000Y-83820000D01*
X145728785Y-84216077D01*
X145953144Y-84551856D01*
X146288923Y-84776215D01*
X146685000Y-84855000D01*
X147115198Y-84855000D01*
X146782599Y-85187599D01*
X146752557Y-85232560D01*
X146485000Y-85232560D01*
X146389610Y-85250509D01*
X146376310Y-85245000D01*
X146308750Y-85245000D01*
X146283223Y-85270527D01*
X146249683Y-85276838D01*
X146047473Y-85406956D01*
X145866890Y-85283569D01*
X145820406Y-85274156D01*
X145791250Y-85245000D01*
X145723690Y-85245000D01*
X145708172Y-85251428D01*
X145615000Y-85232560D01*
X145215000Y-85232560D01*
X145093186Y-85255481D01*
X144980000Y-85232560D01*
X144580000Y-85232560D01*
X144458186Y-85255481D01*
X144345000Y-85232560D01*
X143945000Y-85232560D01*
X143823186Y-85255481D01*
X143710000Y-85232560D01*
X143310000Y-85232560D01*
X143188186Y-85255481D01*
X143075000Y-85232560D01*
X142675000Y-85232560D01*
X142439683Y-85276838D01*
X142223559Y-85415910D01*
X142078569Y-85628110D01*
X142027560Y-85880000D01*
X142027560Y-87080000D01*
X142071838Y-87315317D01*
X142210910Y-87531441D01*
X142319009Y-87605302D01*
X142388784Y-87956078D01*
X142475000Y-88085110D01*
X142475000Y-89531861D01*
X142355000Y-89507560D01*
X140855000Y-89507560D01*
X140619683Y-89551838D01*
X140403559Y-89690910D01*
X140258569Y-89903110D01*
X140255919Y-89916197D01*
X140119090Y-89703559D01*
X139906890Y-89558569D01*
X139665000Y-89509585D01*
X139665000Y-88392440D01*
X139715000Y-88392440D01*
X139950317Y-88348162D01*
X140166441Y-88209090D01*
X140311431Y-87996890D01*
X140362440Y-87745000D01*
X140362440Y-86245000D01*
X140318162Y-86009683D01*
X140179090Y-85793559D01*
X139966890Y-85648569D01*
X139933510Y-85641809D01*
X140074699Y-85583327D01*
X140253327Y-85404698D01*
X140350000Y-85171309D01*
X140350000Y-84580750D01*
X140191250Y-84422000D01*
X139192000Y-84422000D01*
X139192000Y-84442000D01*
X138938000Y-84442000D01*
X138938000Y-84422000D01*
X137938750Y-84422000D01*
X137780000Y-84580750D01*
X137780000Y-85171309D01*
X137876673Y-85404698D01*
X138055301Y-85583327D01*
X138191287Y-85639654D01*
X138179683Y-85641838D01*
X137963559Y-85780910D01*
X137818569Y-85993110D01*
X137767560Y-86245000D01*
X137767560Y-87745000D01*
X137811838Y-87980317D01*
X137950910Y-88196441D01*
X138145000Y-88329057D01*
X138145000Y-89509442D01*
X137920000Y-89551778D01*
X137920000Y-89462463D01*
X137952192Y-89430327D01*
X138094838Y-89086799D01*
X138095162Y-88714833D01*
X137953117Y-88371057D01*
X137690327Y-88107808D01*
X137346799Y-87965162D01*
X136974833Y-87964838D01*
X136631057Y-88106883D01*
X136367808Y-88369673D01*
X136225162Y-88713201D01*
X136224838Y-89085167D01*
X136366883Y-89428943D01*
X136400000Y-89462118D01*
X136400000Y-90060000D01*
X136457852Y-90350839D01*
X136622599Y-90597401D01*
X137367599Y-91342401D01*
X137507560Y-91435920D01*
X137507560Y-91455000D01*
X137539742Y-91626031D01*
X133790000Y-87876288D01*
X133790000Y-86921192D01*
X133956441Y-86814090D01*
X134002969Y-86745994D01*
X134145302Y-86888327D01*
X134378691Y-86985000D01*
X134969250Y-86985000D01*
X135128000Y-86826250D01*
X135128000Y-85852000D01*
X135382000Y-85852000D01*
X135382000Y-86826250D01*
X135540750Y-86985000D01*
X136131309Y-86985000D01*
X136364698Y-86888327D01*
X136543327Y-86709699D01*
X136640000Y-86476310D01*
X136640000Y-86010750D01*
X136481250Y-85852000D01*
X135382000Y-85852000D01*
X135128000Y-85852000D01*
X135108000Y-85852000D01*
X135108000Y-85598000D01*
X135128000Y-85598000D01*
X135128000Y-84623750D01*
X135382000Y-84623750D01*
X135382000Y-85598000D01*
X136481250Y-85598000D01*
X136640000Y-85439250D01*
X136640000Y-84973690D01*
X136543327Y-84740301D01*
X136364698Y-84561673D01*
X136131309Y-84465000D01*
X135540750Y-84465000D01*
X135382000Y-84623750D01*
X135128000Y-84623750D01*
X134969250Y-84465000D01*
X134799020Y-84465000D01*
X134799020Y-83418691D01*
X137780000Y-83418691D01*
X137780000Y-84009250D01*
X137938750Y-84168000D01*
X138938000Y-84168000D01*
X138938000Y-83068750D01*
X139192000Y-83068750D01*
X139192000Y-84168000D01*
X140191250Y-84168000D01*
X140350000Y-84009250D01*
X140350000Y-83418691D01*
X140253327Y-83185302D01*
X140074699Y-83006673D01*
X139841310Y-82910000D01*
X139350750Y-82910000D01*
X139192000Y-83068750D01*
X138938000Y-83068750D01*
X138779250Y-82910000D01*
X138288690Y-82910000D01*
X138055301Y-83006673D01*
X137876673Y-83185302D01*
X137780000Y-83418691D01*
X134799020Y-83418691D01*
X134799020Y-82192870D01*
X135338820Y-82192870D01*
X135574137Y-82148592D01*
X135790261Y-82009520D01*
X135887279Y-81867530D01*
X135902853Y-81905129D01*
X136081482Y-82083757D01*
X136314871Y-82180430D01*
X137730230Y-82180430D01*
X137888980Y-82021680D01*
X137888980Y-80772000D01*
X138142980Y-80772000D01*
X138142980Y-82021680D01*
X138301730Y-82180430D01*
X139717089Y-82180430D01*
X139950478Y-82083757D01*
X140129107Y-81905129D01*
X140225780Y-81671740D01*
X140225780Y-80930750D01*
X140067030Y-80772000D01*
X138142980Y-80772000D01*
X137888980Y-80772000D01*
X137868980Y-80772000D01*
X137868980Y-80518000D01*
X137888980Y-80518000D01*
X137888980Y-79268320D01*
X138142980Y-79268320D01*
X138142980Y-80518000D01*
X140067030Y-80518000D01*
X140225780Y-80359250D01*
X140225780Y-79618260D01*
X140129107Y-79384871D01*
X139950478Y-79206243D01*
X139717089Y-79109570D01*
X138301730Y-79109570D01*
X138142980Y-79268320D01*
X137888980Y-79268320D01*
X137730230Y-79109570D01*
X136314871Y-79109570D01*
X136081482Y-79206243D01*
X135902853Y-79384871D01*
X135886832Y-79423548D01*
X135802910Y-79293129D01*
X135590710Y-79148139D01*
X135338820Y-79097130D01*
X132189220Y-79097130D01*
X131953903Y-79141408D01*
X131737779Y-79280480D01*
X131592789Y-79492680D01*
X131541780Y-79744570D01*
X131541780Y-81545430D01*
X131586058Y-81780747D01*
X131725130Y-81996871D01*
X131937330Y-82141861D01*
X132189220Y-82192870D01*
X132729020Y-82192870D01*
X132729020Y-84287269D01*
X132563729Y-84452560D01*
X132005000Y-84452560D01*
X131769683Y-84496838D01*
X131553559Y-84635910D01*
X131408569Y-84848110D01*
X131357560Y-85100000D01*
X131357560Y-86350000D01*
X131401838Y-86585317D01*
X131540910Y-86801441D01*
X131720000Y-86923808D01*
X131720000Y-88304995D01*
X131719999Y-88305000D01*
X131798785Y-88701077D01*
X132023144Y-89036856D01*
X132946386Y-89960098D01*
X132821057Y-90011883D01*
X132557808Y-90274673D01*
X132415162Y-90618201D01*
X132414838Y-90990167D01*
X132556883Y-91333943D01*
X132590000Y-91367118D01*
X132590000Y-93702130D01*
X131968240Y-93702130D01*
X131732923Y-93746408D01*
X131516799Y-93885480D01*
X131371809Y-94097680D01*
X131320800Y-94349570D01*
X131320800Y-96150430D01*
X131365078Y-96385747D01*
X131504150Y-96601871D01*
X131716350Y-96746861D01*
X131968240Y-96797870D01*
X133900000Y-96797870D01*
X133900000Y-98424442D01*
X133674683Y-98466838D01*
X133458559Y-98605910D01*
X133313569Y-98818110D01*
X133262560Y-99070000D01*
X133262560Y-100320000D01*
X133306838Y-100555317D01*
X133445910Y-100771441D01*
X133658110Y-100916431D01*
X133900000Y-100965415D01*
X133900000Y-101005000D01*
X133957852Y-101295839D01*
X134122599Y-101542401D01*
X145982231Y-113402033D01*
X145982231Y-114652564D01*
X145782790Y-114780901D01*
X145637800Y-114993101D01*
X145599231Y-115183560D01*
X145599231Y-115118681D01*
X145502558Y-114885292D01*
X145323929Y-114706664D01*
X145090540Y-114609991D01*
X144741981Y-114609991D01*
X144583231Y-114768741D01*
X144583231Y-116133991D01*
X144603231Y-116133991D01*
X144603231Y-116387991D01*
X144583231Y-116387991D01*
X144583231Y-117753241D01*
X144741981Y-117911991D01*
X145090540Y-117911991D01*
X145323929Y-117815318D01*
X145502558Y-117636690D01*
X145599231Y-117403301D01*
X145599231Y-117343104D01*
X145631069Y-117512308D01*
X145770141Y-117728432D01*
X145982231Y-117873347D01*
X145982231Y-118269206D01*
X145929698Y-118216673D01*
X145696309Y-118120000D01*
X145105750Y-118120000D01*
X144947000Y-118278750D01*
X144947000Y-119253000D01*
X144967000Y-119253000D01*
X144967000Y-119507000D01*
X144947000Y-119507000D01*
X144947000Y-120481250D01*
X145105750Y-120640000D01*
X145696309Y-120640000D01*
X145929698Y-120543327D01*
X146070936Y-120402090D01*
X146105910Y-120456441D01*
X146318110Y-120601431D01*
X146560000Y-120650415D01*
X146560000Y-121830981D01*
X146466741Y-121967470D01*
X146451167Y-121929871D01*
X146272538Y-121751243D01*
X146039149Y-121654570D01*
X144623790Y-121654570D01*
X144465040Y-121813320D01*
X144465040Y-123063000D01*
X144485040Y-123063000D01*
X144485040Y-123317000D01*
X144465040Y-123317000D01*
X144465040Y-124566680D01*
X144623790Y-124725430D01*
X146039149Y-124725430D01*
X146272538Y-124628757D01*
X146451167Y-124450129D01*
X146467188Y-124411452D01*
X146551110Y-124541871D01*
X146763310Y-124686861D01*
X147015200Y-124737870D01*
X150164800Y-124737870D01*
X150400117Y-124693592D01*
X150616241Y-124554520D01*
X150761231Y-124342320D01*
X150812240Y-124090430D01*
X150812240Y-122289570D01*
X150767962Y-122054253D01*
X150628890Y-121838129D01*
X150416690Y-121693139D01*
X150164800Y-121642130D01*
X148116932Y-121642130D01*
X148080000Y-121605198D01*
X148080000Y-120650558D01*
X148305317Y-120608162D01*
X148521441Y-120469090D01*
X148666431Y-120256890D01*
X148717440Y-120005000D01*
X148717440Y-118755000D01*
X148673162Y-118519683D01*
X148534090Y-118303559D01*
X148321890Y-118158569D01*
X148070000Y-118107560D01*
X147502231Y-118107560D01*
X147502231Y-117869418D01*
X147701672Y-117741081D01*
X147846662Y-117528881D01*
X147884774Y-117340677D01*
X147917069Y-117512308D01*
X148056141Y-117728432D01*
X148268341Y-117873422D01*
X148520231Y-117924431D01*
X149536231Y-117924431D01*
X149771548Y-117880153D01*
X149987672Y-117741081D01*
X150132662Y-117528881D01*
X150158670Y-117400452D01*
X150770619Y-118012401D01*
X151017181Y-118177148D01*
X151308020Y-118235000D01*
X152472537Y-118235000D01*
X152504673Y-118267192D01*
X152848201Y-118409838D01*
X153220167Y-118410162D01*
X153563943Y-118268117D01*
X153827192Y-118005327D01*
X153955091Y-117697314D01*
X153955091Y-123600091D01*
X154012943Y-123890930D01*
X154177690Y-124137492D01*
X154402599Y-124362401D01*
X154649160Y-124527148D01*
X154940000Y-124585000D01*
X183587537Y-124585000D01*
X183619673Y-124617192D01*
X183963201Y-124759838D01*
X184335167Y-124760162D01*
X184678943Y-124618117D01*
X184942192Y-124355327D01*
X185084838Y-124011799D01*
X185085162Y-123639833D01*
X184943117Y-123296057D01*
X184680327Y-123032808D01*
X184336799Y-122890162D01*
X183964833Y-122889838D01*
X183621057Y-123031883D01*
X183587882Y-123065000D01*
X182176212Y-123065000D01*
X185207402Y-120033810D01*
X185293000Y-119905703D01*
X185293000Y-130048000D01*
X130302000Y-130048000D01*
X130302000Y-128057815D01*
X131849630Y-128057815D01*
X132173980Y-128842800D01*
X132774041Y-129443909D01*
X133558459Y-129769628D01*
X134407815Y-129770370D01*
X135192800Y-129446020D01*
X135793909Y-128845959D01*
X136119628Y-128061541D01*
X136119631Y-128057815D01*
X178839630Y-128057815D01*
X179163980Y-128842800D01*
X179764041Y-129443909D01*
X180548459Y-129769628D01*
X181397815Y-129770370D01*
X182182800Y-129446020D01*
X182783909Y-128845959D01*
X183109628Y-128061541D01*
X183110370Y-127212185D01*
X182786020Y-126427200D01*
X182185959Y-125826091D01*
X181401541Y-125500372D01*
X180552185Y-125499630D01*
X179767200Y-125823980D01*
X179166091Y-126424041D01*
X178840372Y-127208459D01*
X178839630Y-128057815D01*
X136119631Y-128057815D01*
X136120370Y-127212185D01*
X135796020Y-126427200D01*
X135195959Y-125826091D01*
X134411541Y-125500372D01*
X133562185Y-125499630D01*
X132777200Y-125823980D01*
X132176091Y-126424041D01*
X131850372Y-127208459D01*
X131849630Y-128057815D01*
X130302000Y-128057815D01*
X130302000Y-123475750D01*
X142128240Y-123475750D01*
X142128240Y-124216740D01*
X142224913Y-124450129D01*
X142403542Y-124628757D01*
X142636931Y-124725430D01*
X144052290Y-124725430D01*
X144211040Y-124566680D01*
X144211040Y-123317000D01*
X142286990Y-123317000D01*
X142128240Y-123475750D01*
X130302000Y-123475750D01*
X130302000Y-118745000D01*
X132457041Y-118745000D01*
X132571115Y-119318489D01*
X132895971Y-119804670D01*
X133210752Y-120015000D01*
X132895971Y-120225330D01*
X132571115Y-120711511D01*
X132457041Y-121285000D01*
X132571115Y-121858489D01*
X132895971Y-122344670D01*
X133382152Y-122669526D01*
X133955641Y-122783600D01*
X134014359Y-122783600D01*
X134587848Y-122669526D01*
X135074029Y-122344670D01*
X135255000Y-122073828D01*
X135435971Y-122344670D01*
X135922152Y-122669526D01*
X136495641Y-122783600D01*
X136554359Y-122783600D01*
X137127848Y-122669526D01*
X137614029Y-122344670D01*
X137735243Y-122163260D01*
X142128240Y-122163260D01*
X142128240Y-122904250D01*
X142286990Y-123063000D01*
X144211040Y-123063000D01*
X144211040Y-121813320D01*
X144052290Y-121654570D01*
X142636931Y-121654570D01*
X142403542Y-121751243D01*
X142224913Y-121929871D01*
X142128240Y-122163260D01*
X137735243Y-122163260D01*
X137938885Y-121858489D01*
X138052959Y-121285000D01*
X137938885Y-120711511D01*
X137614029Y-120225330D01*
X137299248Y-120015000D01*
X137614029Y-119804670D01*
X137706852Y-119665750D01*
X143435000Y-119665750D01*
X143435000Y-120131310D01*
X143531673Y-120364699D01*
X143710302Y-120543327D01*
X143943691Y-120640000D01*
X144534250Y-120640000D01*
X144693000Y-120481250D01*
X144693000Y-119507000D01*
X143593750Y-119507000D01*
X143435000Y-119665750D01*
X137706852Y-119665750D01*
X137938885Y-119318489D01*
X138052959Y-118745000D01*
X138029824Y-118628690D01*
X143435000Y-118628690D01*
X143435000Y-119094250D01*
X143593750Y-119253000D01*
X144693000Y-119253000D01*
X144693000Y-118278750D01*
X144534250Y-118120000D01*
X143943691Y-118120000D01*
X143710302Y-118216673D01*
X143531673Y-118395301D01*
X143435000Y-118628690D01*
X138029824Y-118628690D01*
X137938885Y-118171511D01*
X137614029Y-117685330D01*
X137299248Y-117475000D01*
X137614029Y-117264670D01*
X137938885Y-116778489D01*
X137984982Y-116546741D01*
X143313231Y-116546741D01*
X143313231Y-117403301D01*
X143409904Y-117636690D01*
X143588533Y-117815318D01*
X143821922Y-117911991D01*
X144170481Y-117911991D01*
X144329231Y-117753241D01*
X144329231Y-116387991D01*
X143471981Y-116387991D01*
X143313231Y-116546741D01*
X137984982Y-116546741D01*
X138052959Y-116205000D01*
X137938885Y-115631511D01*
X137614029Y-115145330D01*
X137574146Y-115118681D01*
X143313231Y-115118681D01*
X143313231Y-115975241D01*
X143471981Y-116133991D01*
X144329231Y-116133991D01*
X144329231Y-114768741D01*
X144170481Y-114609991D01*
X143821922Y-114609991D01*
X143588533Y-114706664D01*
X143409904Y-114885292D01*
X143313231Y-115118681D01*
X137574146Y-115118681D01*
X137299248Y-114935000D01*
X137614029Y-114724670D01*
X137938885Y-114238489D01*
X138052959Y-113665000D01*
X137938885Y-113091511D01*
X137614029Y-112605330D01*
X137127848Y-112280474D01*
X136554359Y-112166400D01*
X136495641Y-112166400D01*
X135922152Y-112280474D01*
X135456558Y-112591574D01*
X135451762Y-112566083D01*
X135312690Y-112349959D01*
X135100490Y-112204969D01*
X134848600Y-112153960D01*
X133121400Y-112153960D01*
X132886083Y-112198238D01*
X132669959Y-112337310D01*
X132524969Y-112549510D01*
X132473960Y-112801400D01*
X132473960Y-114528600D01*
X132518238Y-114763917D01*
X132657310Y-114980041D01*
X132869510Y-115125031D01*
X132963375Y-115144039D01*
X132702312Y-115430053D01*
X132530042Y-115845974D01*
X132651183Y-116078000D01*
X133858000Y-116078000D01*
X133858000Y-116058000D01*
X134112000Y-116058000D01*
X134112000Y-116078000D01*
X134132000Y-116078000D01*
X134132000Y-116332000D01*
X134112000Y-116332000D01*
X134112000Y-116352000D01*
X133858000Y-116352000D01*
X133858000Y-116332000D01*
X132651183Y-116332000D01*
X132530042Y-116564026D01*
X132702312Y-116979947D01*
X133096510Y-117411821D01*
X133219228Y-117469336D01*
X132895971Y-117685330D01*
X132571115Y-118171511D01*
X132457041Y-118745000D01*
X130302000Y-118745000D01*
X130302000Y-74717815D01*
X131849630Y-74717815D01*
X132173980Y-75502800D01*
X132774041Y-76103909D01*
X133558459Y-76429628D01*
X134407815Y-76430370D01*
X135192800Y-76106020D01*
X135793909Y-75505959D01*
X136119628Y-74721541D01*
X136119631Y-74717815D01*
X178839630Y-74717815D01*
X179163980Y-75502800D01*
X179764041Y-76103909D01*
X180548459Y-76429628D01*
X181397815Y-76430370D01*
X182182800Y-76106020D01*
X182783909Y-75505959D01*
X183109628Y-74721541D01*
X183110370Y-73872185D01*
X182786020Y-73087200D01*
X182185959Y-72486091D01*
X181401541Y-72160372D01*
X180552185Y-72159630D01*
X179767200Y-72483980D01*
X179166091Y-73084041D01*
X178840372Y-73868459D01*
X178839630Y-74717815D01*
X136119631Y-74717815D01*
X136120370Y-73872185D01*
X135796020Y-73087200D01*
X135195959Y-72486091D01*
X134411541Y-72160372D01*
X133562185Y-72159630D01*
X132777200Y-72483980D01*
X132176091Y-73084041D01*
X131850372Y-73868459D01*
X131849630Y-74717815D01*
X130302000Y-74717815D01*
X130302000Y-71247000D01*
X185293000Y-71247000D01*
X185293000Y-89405704D01*
G36*
X175949970Y-117039002D02*
X175949970Y-120088842D01*
X176007822Y-120379681D01*
X176172569Y-120626243D01*
X177341326Y-121795000D01*
X176890562Y-121795000D01*
X174253161Y-119157599D01*
X174006599Y-118992852D01*
X173743022Y-118940423D01*
X173680660Y-118843509D01*
X173535563Y-118744368D01*
X173668011Y-118659140D01*
X173813001Y-118446940D01*
X173864010Y-118195050D01*
X173864010Y-117394950D01*
X173819732Y-117159633D01*
X173680660Y-116943509D01*
X173468460Y-116798519D01*
X173216570Y-116747510D01*
X171415710Y-116747510D01*
X171180393Y-116791788D01*
X170964269Y-116930860D01*
X170819279Y-117143060D01*
X170768270Y-117394950D01*
X170768270Y-117767688D01*
X170657034Y-117878924D01*
X170466180Y-117748519D01*
X170214290Y-117697510D01*
X168413430Y-117697510D01*
X168178113Y-117741788D01*
X167961989Y-117880860D01*
X167816999Y-118093060D01*
X167765990Y-118344950D01*
X167765990Y-119145050D01*
X167810268Y-119380367D01*
X167949340Y-119596491D01*
X168001784Y-119632324D01*
X165839108Y-121795000D01*
X161259184Y-121795000D01*
X161373882Y-121772185D01*
X161790766Y-121493632D01*
X162069319Y-121076748D01*
X162167134Y-120585000D01*
X162069319Y-120093252D01*
X161790766Y-119676368D01*
X161654024Y-119585000D01*
X161790766Y-119493632D01*
X162069319Y-119076748D01*
X162167134Y-118585000D01*
X162069319Y-118093252D01*
X161790766Y-117676368D01*
X161654024Y-117585000D01*
X161790766Y-117493632D01*
X162069319Y-117076748D01*
X162167134Y-116585000D01*
X162069319Y-116093252D01*
X161790766Y-115676368D01*
X161654024Y-115585000D01*
X161790766Y-115493632D01*
X162069319Y-115076748D01*
X162167134Y-114585000D01*
X162069319Y-114093252D01*
X161790766Y-113676368D01*
X161641087Y-113576356D01*
X161909378Y-113317678D01*
X162098099Y-112910471D01*
X161974067Y-112712000D01*
X160882000Y-112712000D01*
X160882000Y-112732000D01*
X160628000Y-112732000D01*
X160628000Y-112712000D01*
X160608000Y-112712000D01*
X160608000Y-112458000D01*
X160628000Y-112458000D01*
X160628000Y-112438000D01*
X160882000Y-112438000D01*
X160882000Y-112458000D01*
X161974067Y-112458000D01*
X162098099Y-112259529D01*
X161909378Y-111852322D01*
X161641087Y-111593644D01*
X161790766Y-111493632D01*
X162069319Y-111076748D01*
X162167134Y-110585000D01*
X162069319Y-110093252D01*
X161790766Y-109676368D01*
X161654024Y-109585000D01*
X161790766Y-109493632D01*
X162069319Y-109076748D01*
X162167134Y-108585000D01*
X162069319Y-108093252D01*
X161790766Y-107676368D01*
X161654024Y-107585000D01*
X161790766Y-107493632D01*
X162069319Y-107076748D01*
X162167134Y-106585000D01*
X162069319Y-106093252D01*
X161790766Y-105676368D01*
X161654024Y-105585000D01*
X161790766Y-105493632D01*
X162069319Y-105076748D01*
X162167134Y-104585000D01*
X162069319Y-104093252D01*
X161790766Y-103676368D01*
X161654024Y-103585000D01*
X161790766Y-103493632D01*
X162036633Y-103125665D01*
X175949970Y-117039002D01*
X175949970Y-117039002D01*
G37*
X175949970Y-117039002D02*
X175949970Y-120088842D01*
X176007822Y-120379681D01*
X176172569Y-120626243D01*
X177341326Y-121795000D01*
X176890562Y-121795000D01*
X174253161Y-119157599D01*
X174006599Y-118992852D01*
X173743022Y-118940423D01*
X173680660Y-118843509D01*
X173535563Y-118744368D01*
X173668011Y-118659140D01*
X173813001Y-118446940D01*
X173864010Y-118195050D01*
X173864010Y-117394950D01*
X173819732Y-117159633D01*
X173680660Y-116943509D01*
X173468460Y-116798519D01*
X173216570Y-116747510D01*
X171415710Y-116747510D01*
X171180393Y-116791788D01*
X170964269Y-116930860D01*
X170819279Y-117143060D01*
X170768270Y-117394950D01*
X170768270Y-117767688D01*
X170657034Y-117878924D01*
X170466180Y-117748519D01*
X170214290Y-117697510D01*
X168413430Y-117697510D01*
X168178113Y-117741788D01*
X167961989Y-117880860D01*
X167816999Y-118093060D01*
X167765990Y-118344950D01*
X167765990Y-119145050D01*
X167810268Y-119380367D01*
X167949340Y-119596491D01*
X168001784Y-119632324D01*
X165839108Y-121795000D01*
X161259184Y-121795000D01*
X161373882Y-121772185D01*
X161790766Y-121493632D01*
X162069319Y-121076748D01*
X162167134Y-120585000D01*
X162069319Y-120093252D01*
X161790766Y-119676368D01*
X161654024Y-119585000D01*
X161790766Y-119493632D01*
X162069319Y-119076748D01*
X162167134Y-118585000D01*
X162069319Y-118093252D01*
X161790766Y-117676368D01*
X161654024Y-117585000D01*
X161790766Y-117493632D01*
X162069319Y-117076748D01*
X162167134Y-116585000D01*
X162069319Y-116093252D01*
X161790766Y-115676368D01*
X161654024Y-115585000D01*
X161790766Y-115493632D01*
X162069319Y-115076748D01*
X162167134Y-114585000D01*
X162069319Y-114093252D01*
X161790766Y-113676368D01*
X161641087Y-113576356D01*
X161909378Y-113317678D01*
X162098099Y-112910471D01*
X161974067Y-112712000D01*
X160882000Y-112712000D01*
X160882000Y-112732000D01*
X160628000Y-112732000D01*
X160628000Y-112712000D01*
X160608000Y-112712000D01*
X160608000Y-112458000D01*
X160628000Y-112458000D01*
X160628000Y-112438000D01*
X160882000Y-112438000D01*
X160882000Y-112458000D01*
X161974067Y-112458000D01*
X162098099Y-112259529D01*
X161909378Y-111852322D01*
X161641087Y-111593644D01*
X161790766Y-111493632D01*
X162069319Y-111076748D01*
X162167134Y-110585000D01*
X162069319Y-110093252D01*
X161790766Y-109676368D01*
X161654024Y-109585000D01*
X161790766Y-109493632D01*
X162069319Y-109076748D01*
X162167134Y-108585000D01*
X162069319Y-108093252D01*
X161790766Y-107676368D01*
X161654024Y-107585000D01*
X161790766Y-107493632D01*
X162069319Y-107076748D01*
X162167134Y-106585000D01*
X162069319Y-106093252D01*
X161790766Y-105676368D01*
X161654024Y-105585000D01*
X161790766Y-105493632D01*
X162069319Y-105076748D01*
X162167134Y-104585000D01*
X162069319Y-104093252D01*
X161790766Y-103676368D01*
X161654024Y-103585000D01*
X161790766Y-103493632D01*
X162036633Y-103125665D01*
X175949970Y-117039002D01*
G36*
X155971189Y-99597401D02*
X156217751Y-99762148D01*
X156508590Y-99820000D01*
X158730968Y-99820000D01*
X160280136Y-101369168D01*
X160136118Y-101397815D01*
X159849215Y-101589517D01*
X159843327Y-101575302D01*
X159664699Y-101396673D01*
X159431310Y-101300000D01*
X158840750Y-101300000D01*
X158682000Y-101458750D01*
X158682000Y-102458000D01*
X158702000Y-102458000D01*
X158702000Y-102712000D01*
X158682000Y-102712000D01*
X158682000Y-102732000D01*
X158428000Y-102732000D01*
X158428000Y-102712000D01*
X157328750Y-102712000D01*
X157170000Y-102870750D01*
X157170000Y-103361309D01*
X157266673Y-103594698D01*
X157445301Y-103773327D01*
X157452465Y-103776295D01*
X157240681Y-104093252D01*
X157142866Y-104585000D01*
X157240681Y-105076748D01*
X157519234Y-105493632D01*
X157655976Y-105585000D01*
X157519234Y-105676368D01*
X157240681Y-106093252D01*
X157142866Y-106585000D01*
X157240681Y-107076748D01*
X157519234Y-107493632D01*
X157655976Y-107585000D01*
X157519234Y-107676368D01*
X157240681Y-108093252D01*
X157142866Y-108585000D01*
X157240681Y-109076748D01*
X157519234Y-109493632D01*
X157655976Y-109585000D01*
X157519234Y-109676368D01*
X157240681Y-110093252D01*
X157142866Y-110585000D01*
X157240681Y-111076748D01*
X157519234Y-111493632D01*
X157655976Y-111585000D01*
X157519234Y-111676368D01*
X157240681Y-112093252D01*
X157142866Y-112585000D01*
X157240681Y-113076748D01*
X157519234Y-113493632D01*
X157655976Y-113585000D01*
X157519234Y-113676368D01*
X157240681Y-114093252D01*
X157142866Y-114585000D01*
X157240681Y-115076748D01*
X157519234Y-115493632D01*
X157655976Y-115585000D01*
X157519234Y-115676368D01*
X157240681Y-116093252D01*
X157240245Y-116095443D01*
X155925101Y-114780299D01*
X155925101Y-101808691D01*
X157170000Y-101808691D01*
X157170000Y-102299250D01*
X157328750Y-102458000D01*
X158428000Y-102458000D01*
X158428000Y-101458750D01*
X158269250Y-101300000D01*
X157678690Y-101300000D01*
X157445301Y-101396673D01*
X157266673Y-101575302D01*
X157170000Y-101808691D01*
X155925101Y-101808691D01*
X155925101Y-101190101D01*
X155867249Y-100899262D01*
X155702502Y-100652700D01*
X147620122Y-92570320D01*
X147620162Y-92524833D01*
X147478117Y-92181057D01*
X147215327Y-91917808D01*
X146871799Y-91775162D01*
X146499833Y-91774838D01*
X146156057Y-91916883D01*
X145926171Y-92146369D01*
X144995008Y-91215206D01*
X144995008Y-88621220D01*
X155971189Y-99597401D01*
X155971189Y-99597401D01*
G37*
X155971189Y-99597401D02*
X156217751Y-99762148D01*
X156508590Y-99820000D01*
X158730968Y-99820000D01*
X160280136Y-101369168D01*
X160136118Y-101397815D01*
X159849215Y-101589517D01*
X159843327Y-101575302D01*
X159664699Y-101396673D01*
X159431310Y-101300000D01*
X158840750Y-101300000D01*
X158682000Y-101458750D01*
X158682000Y-102458000D01*
X158702000Y-102458000D01*
X158702000Y-102712000D01*
X158682000Y-102712000D01*
X158682000Y-102732000D01*
X158428000Y-102732000D01*
X158428000Y-102712000D01*
X157328750Y-102712000D01*
X157170000Y-102870750D01*
X157170000Y-103361309D01*
X157266673Y-103594698D01*
X157445301Y-103773327D01*
X157452465Y-103776295D01*
X157240681Y-104093252D01*
X157142866Y-104585000D01*
X157240681Y-105076748D01*
X157519234Y-105493632D01*
X157655976Y-105585000D01*
X157519234Y-105676368D01*
X157240681Y-106093252D01*
X157142866Y-106585000D01*
X157240681Y-107076748D01*
X157519234Y-107493632D01*
X157655976Y-107585000D01*
X157519234Y-107676368D01*
X157240681Y-108093252D01*
X157142866Y-108585000D01*
X157240681Y-109076748D01*
X157519234Y-109493632D01*
X157655976Y-109585000D01*
X157519234Y-109676368D01*
X157240681Y-110093252D01*
X157142866Y-110585000D01*
X157240681Y-111076748D01*
X157519234Y-111493632D01*
X157655976Y-111585000D01*
X157519234Y-111676368D01*
X157240681Y-112093252D01*
X157142866Y-112585000D01*
X157240681Y-113076748D01*
X157519234Y-113493632D01*
X157655976Y-113585000D01*
X157519234Y-113676368D01*
X157240681Y-114093252D01*
X157142866Y-114585000D01*
X157240681Y-115076748D01*
X157519234Y-115493632D01*
X157655976Y-115585000D01*
X157519234Y-115676368D01*
X157240681Y-116093252D01*
X157240245Y-116095443D01*
X155925101Y-114780299D01*
X155925101Y-101808691D01*
X157170000Y-101808691D01*
X157170000Y-102299250D01*
X157328750Y-102458000D01*
X158428000Y-102458000D01*
X158428000Y-101458750D01*
X158269250Y-101300000D01*
X157678690Y-101300000D01*
X157445301Y-101396673D01*
X157266673Y-101575302D01*
X157170000Y-101808691D01*
X155925101Y-101808691D01*
X155925101Y-101190101D01*
X155867249Y-100899262D01*
X155702502Y-100652700D01*
X147620122Y-92570320D01*
X147620162Y-92524833D01*
X147478117Y-92181057D01*
X147215327Y-91917808D01*
X146871799Y-91775162D01*
X146499833Y-91774838D01*
X146156057Y-91916883D01*
X145926171Y-92146369D01*
X144995008Y-91215206D01*
X144995008Y-88621220D01*
X155971189Y-99597401D01*
G36*
X143697607Y-92067409D02*
X147215106Y-95584908D01*
X147134833Y-95584838D01*
X146791057Y-95726883D01*
X146527808Y-95989673D01*
X146385162Y-96333201D01*
X146384838Y-96705167D01*
X146526883Y-97048943D01*
X146560000Y-97082118D01*
X146560000Y-100240981D01*
X146466741Y-100377470D01*
X146451167Y-100339871D01*
X146272538Y-100161243D01*
X146039149Y-100064570D01*
X144623790Y-100064570D01*
X144465040Y-100223320D01*
X144465040Y-101473000D01*
X144485040Y-101473000D01*
X144485040Y-101727000D01*
X144465040Y-101727000D01*
X144465040Y-102976680D01*
X144623790Y-103135430D01*
X146039149Y-103135430D01*
X146272538Y-103038757D01*
X146451167Y-102860129D01*
X146467188Y-102821452D01*
X146551110Y-102951871D01*
X146763310Y-103096861D01*
X147015200Y-103147870D01*
X147252231Y-103147870D01*
X147252231Y-104774442D01*
X147026914Y-104816838D01*
X146810790Y-104955910D01*
X146764262Y-105024006D01*
X146621929Y-104881673D01*
X146388540Y-104785000D01*
X145797981Y-104785000D01*
X145639231Y-104943750D01*
X145639231Y-105918000D01*
X145659231Y-105918000D01*
X145659231Y-106172000D01*
X145639231Y-106172000D01*
X145639231Y-107146250D01*
X145797981Y-107305000D01*
X146388540Y-107305000D01*
X146621929Y-107208327D01*
X146763167Y-107067090D01*
X146798141Y-107121441D01*
X147010341Y-107266431D01*
X147262231Y-107317440D01*
X147381311Y-107317440D01*
X147474830Y-107457401D01*
X148010980Y-107993551D01*
X144913431Y-107993551D01*
X144678114Y-108037829D01*
X144461990Y-108176901D01*
X144317000Y-108389101D01*
X144265991Y-108640991D01*
X144265991Y-109536189D01*
X141060552Y-106330750D01*
X144127231Y-106330750D01*
X144127231Y-106796310D01*
X144223904Y-107029699D01*
X144402533Y-107208327D01*
X144635922Y-107305000D01*
X145226481Y-107305000D01*
X145385231Y-107146250D01*
X145385231Y-106172000D01*
X144285981Y-106172000D01*
X144127231Y-106330750D01*
X141060552Y-106330750D01*
X140023492Y-105293690D01*
X144127231Y-105293690D01*
X144127231Y-105759250D01*
X144285981Y-105918000D01*
X145385231Y-105918000D01*
X145385231Y-104943750D01*
X145226481Y-104785000D01*
X144635922Y-104785000D01*
X144402533Y-104881673D01*
X144223904Y-105060301D01*
X144127231Y-105293690D01*
X140023492Y-105293690D01*
X136615552Y-101885750D01*
X142128240Y-101885750D01*
X142128240Y-102626740D01*
X142224913Y-102860129D01*
X142403542Y-103038757D01*
X142636931Y-103135430D01*
X144052290Y-103135430D01*
X144211040Y-102976680D01*
X144211040Y-101727000D01*
X142286990Y-101727000D01*
X142128240Y-101885750D01*
X136615552Y-101885750D01*
X135649970Y-100920168D01*
X135861441Y-100784090D01*
X135907969Y-100715994D01*
X136050302Y-100858327D01*
X136283691Y-100955000D01*
X136874250Y-100955000D01*
X137033000Y-100796250D01*
X137033000Y-99822000D01*
X137287000Y-99822000D01*
X137287000Y-100796250D01*
X137445750Y-100955000D01*
X138036309Y-100955000D01*
X138269698Y-100858327D01*
X138448327Y-100679699D01*
X138492415Y-100573260D01*
X142128240Y-100573260D01*
X142128240Y-101314250D01*
X142286990Y-101473000D01*
X144211040Y-101473000D01*
X144211040Y-100223320D01*
X144052290Y-100064570D01*
X142636931Y-100064570D01*
X142403542Y-100161243D01*
X142224913Y-100339871D01*
X142128240Y-100573260D01*
X138492415Y-100573260D01*
X138545000Y-100446310D01*
X138545000Y-99980750D01*
X138386250Y-99822000D01*
X137287000Y-99822000D01*
X137033000Y-99822000D01*
X137013000Y-99822000D01*
X137013000Y-99568000D01*
X137033000Y-99568000D01*
X137033000Y-98593750D01*
X137287000Y-98593750D01*
X137287000Y-99568000D01*
X138386250Y-99568000D01*
X138545000Y-99409250D01*
X138545000Y-98943690D01*
X138448327Y-98710301D01*
X138269698Y-98531673D01*
X138036309Y-98435000D01*
X137445750Y-98435000D01*
X137287000Y-98593750D01*
X137033000Y-98593750D01*
X136874250Y-98435000D01*
X136283691Y-98435000D01*
X136050302Y-98531673D01*
X135909064Y-98672910D01*
X135874090Y-98618559D01*
X135661890Y-98473569D01*
X135420000Y-98424585D01*
X135420000Y-96710580D01*
X135569281Y-96614520D01*
X135666299Y-96472530D01*
X135681873Y-96510129D01*
X135860502Y-96688757D01*
X136093891Y-96785430D01*
X137509250Y-96785430D01*
X137668000Y-96626680D01*
X137668000Y-95377000D01*
X137922000Y-95377000D01*
X137922000Y-96626680D01*
X138080750Y-96785430D01*
X139496109Y-96785430D01*
X139729498Y-96688757D01*
X139908127Y-96510129D01*
X140004800Y-96276740D01*
X140004800Y-95535750D01*
X139846050Y-95377000D01*
X137922000Y-95377000D01*
X137668000Y-95377000D01*
X137648000Y-95377000D01*
X137648000Y-95123000D01*
X137668000Y-95123000D01*
X137668000Y-95103000D01*
X137922000Y-95103000D01*
X137922000Y-95123000D01*
X139846050Y-95123000D01*
X140004800Y-94964250D01*
X140004800Y-94223260D01*
X139908127Y-93989871D01*
X139729498Y-93811243D01*
X139569573Y-93745000D01*
X141149995Y-93745000D01*
X141150000Y-93745001D01*
X141546077Y-93666215D01*
X141881856Y-93441856D01*
X142336853Y-92986858D01*
X142336856Y-92986856D01*
X142561215Y-92651077D01*
X142570591Y-92603943D01*
X142640001Y-92255000D01*
X142640000Y-92254995D01*
X142640000Y-92026192D01*
X142806441Y-91919090D01*
X142860481Y-91840000D01*
X143510000Y-91840000D01*
X143541474Y-91833739D01*
X143697607Y-92067409D01*
X143697607Y-92067409D01*
G37*
X143697607Y-92067409D02*
X147215106Y-95584908D01*
X147134833Y-95584838D01*
X146791057Y-95726883D01*
X146527808Y-95989673D01*
X146385162Y-96333201D01*
X146384838Y-96705167D01*
X146526883Y-97048943D01*
X146560000Y-97082118D01*
X146560000Y-100240981D01*
X146466741Y-100377470D01*
X146451167Y-100339871D01*
X146272538Y-100161243D01*
X146039149Y-100064570D01*
X144623790Y-100064570D01*
X144465040Y-100223320D01*
X144465040Y-101473000D01*
X144485040Y-101473000D01*
X144485040Y-101727000D01*
X144465040Y-101727000D01*
X144465040Y-102976680D01*
X144623790Y-103135430D01*
X146039149Y-103135430D01*
X146272538Y-103038757D01*
X146451167Y-102860129D01*
X146467188Y-102821452D01*
X146551110Y-102951871D01*
X146763310Y-103096861D01*
X147015200Y-103147870D01*
X147252231Y-103147870D01*
X147252231Y-104774442D01*
X147026914Y-104816838D01*
X146810790Y-104955910D01*
X146764262Y-105024006D01*
X146621929Y-104881673D01*
X146388540Y-104785000D01*
X145797981Y-104785000D01*
X145639231Y-104943750D01*
X145639231Y-105918000D01*
X145659231Y-105918000D01*
X145659231Y-106172000D01*
X145639231Y-106172000D01*
X145639231Y-107146250D01*
X145797981Y-107305000D01*
X146388540Y-107305000D01*
X146621929Y-107208327D01*
X146763167Y-107067090D01*
X146798141Y-107121441D01*
X147010341Y-107266431D01*
X147262231Y-107317440D01*
X147381311Y-107317440D01*
X147474830Y-107457401D01*
X148010980Y-107993551D01*
X144913431Y-107993551D01*
X144678114Y-108037829D01*
X144461990Y-108176901D01*
X144317000Y-108389101D01*
X144265991Y-108640991D01*
X144265991Y-109536189D01*
X141060552Y-106330750D01*
X144127231Y-106330750D01*
X144127231Y-106796310D01*
X144223904Y-107029699D01*
X144402533Y-107208327D01*
X144635922Y-107305000D01*
X145226481Y-107305000D01*
X145385231Y-107146250D01*
X145385231Y-106172000D01*
X144285981Y-106172000D01*
X144127231Y-106330750D01*
X141060552Y-106330750D01*
X140023492Y-105293690D01*
X144127231Y-105293690D01*
X144127231Y-105759250D01*
X144285981Y-105918000D01*
X145385231Y-105918000D01*
X145385231Y-104943750D01*
X145226481Y-104785000D01*
X144635922Y-104785000D01*
X144402533Y-104881673D01*
X144223904Y-105060301D01*
X144127231Y-105293690D01*
X140023492Y-105293690D01*
X136615552Y-101885750D01*
X142128240Y-101885750D01*
X142128240Y-102626740D01*
X142224913Y-102860129D01*
X142403542Y-103038757D01*
X142636931Y-103135430D01*
X144052290Y-103135430D01*
X144211040Y-102976680D01*
X144211040Y-101727000D01*
X142286990Y-101727000D01*
X142128240Y-101885750D01*
X136615552Y-101885750D01*
X135649970Y-100920168D01*
X135861441Y-100784090D01*
X135907969Y-100715994D01*
X136050302Y-100858327D01*
X136283691Y-100955000D01*
X136874250Y-100955000D01*
X137033000Y-100796250D01*
X137033000Y-99822000D01*
X137287000Y-99822000D01*
X137287000Y-100796250D01*
X137445750Y-100955000D01*
X138036309Y-100955000D01*
X138269698Y-100858327D01*
X138448327Y-100679699D01*
X138492415Y-100573260D01*
X142128240Y-100573260D01*
X142128240Y-101314250D01*
X142286990Y-101473000D01*
X144211040Y-101473000D01*
X144211040Y-100223320D01*
X144052290Y-100064570D01*
X142636931Y-100064570D01*
X142403542Y-100161243D01*
X142224913Y-100339871D01*
X142128240Y-100573260D01*
X138492415Y-100573260D01*
X138545000Y-100446310D01*
X138545000Y-99980750D01*
X138386250Y-99822000D01*
X137287000Y-99822000D01*
X137033000Y-99822000D01*
X137013000Y-99822000D01*
X137013000Y-99568000D01*
X137033000Y-99568000D01*
X137033000Y-98593750D01*
X137287000Y-98593750D01*
X137287000Y-99568000D01*
X138386250Y-99568000D01*
X138545000Y-99409250D01*
X138545000Y-98943690D01*
X138448327Y-98710301D01*
X138269698Y-98531673D01*
X138036309Y-98435000D01*
X137445750Y-98435000D01*
X137287000Y-98593750D01*
X137033000Y-98593750D01*
X136874250Y-98435000D01*
X136283691Y-98435000D01*
X136050302Y-98531673D01*
X135909064Y-98672910D01*
X135874090Y-98618559D01*
X135661890Y-98473569D01*
X135420000Y-98424585D01*
X135420000Y-96710580D01*
X135569281Y-96614520D01*
X135666299Y-96472530D01*
X135681873Y-96510129D01*
X135860502Y-96688757D01*
X136093891Y-96785430D01*
X137509250Y-96785430D01*
X137668000Y-96626680D01*
X137668000Y-95377000D01*
X137922000Y-95377000D01*
X137922000Y-96626680D01*
X138080750Y-96785430D01*
X139496109Y-96785430D01*
X139729498Y-96688757D01*
X139908127Y-96510129D01*
X140004800Y-96276740D01*
X140004800Y-95535750D01*
X139846050Y-95377000D01*
X137922000Y-95377000D01*
X137668000Y-95377000D01*
X137648000Y-95377000D01*
X137648000Y-95123000D01*
X137668000Y-95123000D01*
X137668000Y-95103000D01*
X137922000Y-95103000D01*
X137922000Y-95123000D01*
X139846050Y-95123000D01*
X140004800Y-94964250D01*
X140004800Y-94223260D01*
X139908127Y-93989871D01*
X139729498Y-93811243D01*
X139569573Y-93745000D01*
X141149995Y-93745000D01*
X141150000Y-93745001D01*
X141546077Y-93666215D01*
X141881856Y-93441856D01*
X142336853Y-92986858D01*
X142336856Y-92986856D01*
X142561215Y-92651077D01*
X142570591Y-92603943D01*
X142640001Y-92255000D01*
X142640000Y-92254995D01*
X142640000Y-92026192D01*
X142806441Y-91919090D01*
X142860481Y-91840000D01*
X143510000Y-91840000D01*
X143541474Y-91833739D01*
X143697607Y-92067409D01*
G36*
X166614100Y-92674440D02*
X166658378Y-92909757D01*
X166797450Y-93125881D01*
X167009650Y-93270871D01*
X167100980Y-93289366D01*
X167100980Y-94753265D01*
X167073559Y-94770910D01*
X166928569Y-94983110D01*
X166877560Y-95235000D01*
X166877560Y-96535000D01*
X166921838Y-96770317D01*
X167060910Y-96986441D01*
X167273110Y-97131431D01*
X167525000Y-97182440D01*
X169025000Y-97182440D01*
X169260317Y-97138162D01*
X169476441Y-96999090D01*
X169621431Y-96786890D01*
X169624081Y-96773803D01*
X169760910Y-96986441D01*
X169973110Y-97131431D01*
X170215000Y-97180415D01*
X170215000Y-101760000D01*
X170272852Y-102050839D01*
X170437599Y-102297401D01*
X174959878Y-106819680D01*
X174959838Y-106865167D01*
X175101883Y-107208943D01*
X175364673Y-107472192D01*
X175708201Y-107614838D01*
X176080167Y-107615162D01*
X176423943Y-107473117D01*
X176687192Y-107210327D01*
X176829838Y-106866799D01*
X176830162Y-106494833D01*
X176688117Y-106151057D01*
X176425327Y-105887808D01*
X176081799Y-105745162D01*
X176034923Y-105745121D01*
X172824894Y-102535092D01*
X172905167Y-102535162D01*
X173248943Y-102393117D01*
X173512192Y-102130327D01*
X173654838Y-101786799D01*
X173655162Y-101414833D01*
X173513117Y-101071057D01*
X173480000Y-101037882D01*
X173480000Y-97124979D01*
X173588691Y-97170000D01*
X174179250Y-97170000D01*
X174338000Y-97011250D01*
X174338000Y-96012000D01*
X174318000Y-96012000D01*
X174318000Y-95758000D01*
X174338000Y-95758000D01*
X174338000Y-94758750D01*
X174179250Y-94600000D01*
X173588691Y-94600000D01*
X173480000Y-94645021D01*
X173480000Y-93913310D01*
X173543110Y-93956431D01*
X173795000Y-94007440D01*
X175295000Y-94007440D01*
X175530317Y-93963162D01*
X175746441Y-93824090D01*
X175891431Y-93611890D01*
X175894081Y-93598803D01*
X176030910Y-93811441D01*
X176243110Y-93956431D01*
X176485000Y-94005415D01*
X176485000Y-94587560D01*
X176415000Y-94587560D01*
X176179683Y-94631838D01*
X175963559Y-94770910D01*
X175818569Y-94983110D01*
X175811809Y-95016490D01*
X175753327Y-94875301D01*
X175574698Y-94696673D01*
X175341309Y-94600000D01*
X174750750Y-94600000D01*
X174592000Y-94758750D01*
X174592000Y-95758000D01*
X174612000Y-95758000D01*
X174612000Y-96012000D01*
X174592000Y-96012000D01*
X174592000Y-97011250D01*
X174750750Y-97170000D01*
X175341309Y-97170000D01*
X175574698Y-97073327D01*
X175753327Y-96894699D01*
X175809654Y-96758713D01*
X175811838Y-96770317D01*
X175950910Y-96986441D01*
X176163110Y-97131431D01*
X176405000Y-97180415D01*
X176405000Y-103505000D01*
X176462852Y-103795839D01*
X176627599Y-104042401D01*
X177298359Y-104713161D01*
X177370681Y-105076748D01*
X177649234Y-105493632D01*
X177785976Y-105585000D01*
X177649234Y-105676368D01*
X177370681Y-106093252D01*
X177272866Y-106585000D01*
X177370681Y-107076748D01*
X177649234Y-107493632D01*
X177785976Y-107585000D01*
X177649234Y-107676368D01*
X177549921Y-107825000D01*
X173520633Y-107825000D01*
X173654838Y-107501799D01*
X173655162Y-107129833D01*
X173513117Y-106786057D01*
X173250327Y-106522808D01*
X172906799Y-106380162D01*
X172534833Y-106379838D01*
X172191057Y-106521883D01*
X172157882Y-106555000D01*
X171767622Y-106555000D01*
X164126212Y-98913590D01*
X165717401Y-97322401D01*
X165810920Y-97182440D01*
X165930000Y-97182440D01*
X166165317Y-97138162D01*
X166381441Y-96999090D01*
X166526431Y-96786890D01*
X166577440Y-96535000D01*
X166577440Y-95235000D01*
X166533162Y-94999683D01*
X166394090Y-94783559D01*
X166181890Y-94638569D01*
X165930000Y-94587560D01*
X164952242Y-94587560D01*
X165637401Y-93902401D01*
X165802148Y-93655840D01*
X165860000Y-93365000D01*
X165860000Y-93291669D01*
X165934757Y-93277602D01*
X166150881Y-93138530D01*
X166295871Y-92926330D01*
X166346880Y-92674440D01*
X166346880Y-91565000D01*
X166614100Y-91565000D01*
X166614100Y-92674440D01*
X166614100Y-92674440D01*
G37*
X166614100Y-92674440D02*
X166658378Y-92909757D01*
X166797450Y-93125881D01*
X167009650Y-93270871D01*
X167100980Y-93289366D01*
X167100980Y-94753265D01*
X167073559Y-94770910D01*
X166928569Y-94983110D01*
X166877560Y-95235000D01*
X166877560Y-96535000D01*
X166921838Y-96770317D01*
X167060910Y-96986441D01*
X167273110Y-97131431D01*
X167525000Y-97182440D01*
X169025000Y-97182440D01*
X169260317Y-97138162D01*
X169476441Y-96999090D01*
X169621431Y-96786890D01*
X169624081Y-96773803D01*
X169760910Y-96986441D01*
X169973110Y-97131431D01*
X170215000Y-97180415D01*
X170215000Y-101760000D01*
X170272852Y-102050839D01*
X170437599Y-102297401D01*
X174959878Y-106819680D01*
X174959838Y-106865167D01*
X175101883Y-107208943D01*
X175364673Y-107472192D01*
X175708201Y-107614838D01*
X176080167Y-107615162D01*
X176423943Y-107473117D01*
X176687192Y-107210327D01*
X176829838Y-106866799D01*
X176830162Y-106494833D01*
X176688117Y-106151057D01*
X176425327Y-105887808D01*
X176081799Y-105745162D01*
X176034923Y-105745121D01*
X172824894Y-102535092D01*
X172905167Y-102535162D01*
X173248943Y-102393117D01*
X173512192Y-102130327D01*
X173654838Y-101786799D01*
X173655162Y-101414833D01*
X173513117Y-101071057D01*
X173480000Y-101037882D01*
X173480000Y-97124979D01*
X173588691Y-97170000D01*
X174179250Y-97170000D01*
X174338000Y-97011250D01*
X174338000Y-96012000D01*
X174318000Y-96012000D01*
X174318000Y-95758000D01*
X174338000Y-95758000D01*
X174338000Y-94758750D01*
X174179250Y-94600000D01*
X173588691Y-94600000D01*
X173480000Y-94645021D01*
X173480000Y-93913310D01*
X173543110Y-93956431D01*
X173795000Y-94007440D01*
X175295000Y-94007440D01*
X175530317Y-93963162D01*
X175746441Y-93824090D01*
X175891431Y-93611890D01*
X175894081Y-93598803D01*
X176030910Y-93811441D01*
X176243110Y-93956431D01*
X176485000Y-94005415D01*
X176485000Y-94587560D01*
X176415000Y-94587560D01*
X176179683Y-94631838D01*
X175963559Y-94770910D01*
X175818569Y-94983110D01*
X175811809Y-95016490D01*
X175753327Y-94875301D01*
X175574698Y-94696673D01*
X175341309Y-94600000D01*
X174750750Y-94600000D01*
X174592000Y-94758750D01*
X174592000Y-95758000D01*
X174612000Y-95758000D01*
X174612000Y-96012000D01*
X174592000Y-96012000D01*
X174592000Y-97011250D01*
X174750750Y-97170000D01*
X175341309Y-97170000D01*
X175574698Y-97073327D01*
X175753327Y-96894699D01*
X175809654Y-96758713D01*
X175811838Y-96770317D01*
X175950910Y-96986441D01*
X176163110Y-97131431D01*
X176405000Y-97180415D01*
X176405000Y-103505000D01*
X176462852Y-103795839D01*
X176627599Y-104042401D01*
X177298359Y-104713161D01*
X177370681Y-105076748D01*
X177649234Y-105493632D01*
X177785976Y-105585000D01*
X177649234Y-105676368D01*
X177370681Y-106093252D01*
X177272866Y-106585000D01*
X177370681Y-107076748D01*
X177649234Y-107493632D01*
X177785976Y-107585000D01*
X177649234Y-107676368D01*
X177549921Y-107825000D01*
X173520633Y-107825000D01*
X173654838Y-107501799D01*
X173655162Y-107129833D01*
X173513117Y-106786057D01*
X173250327Y-106522808D01*
X172906799Y-106380162D01*
X172534833Y-106379838D01*
X172191057Y-106521883D01*
X172157882Y-106555000D01*
X171767622Y-106555000D01*
X164126212Y-98913590D01*
X165717401Y-97322401D01*
X165810920Y-97182440D01*
X165930000Y-97182440D01*
X166165317Y-97138162D01*
X166381441Y-96999090D01*
X166526431Y-96786890D01*
X166577440Y-96535000D01*
X166577440Y-95235000D01*
X166533162Y-94999683D01*
X166394090Y-94783559D01*
X166181890Y-94638569D01*
X165930000Y-94587560D01*
X164952242Y-94587560D01*
X165637401Y-93902401D01*
X165802148Y-93655840D01*
X165860000Y-93365000D01*
X165860000Y-93291669D01*
X165934757Y-93277602D01*
X166150881Y-93138530D01*
X166295871Y-92926330D01*
X166346880Y-92674440D01*
X166346880Y-91565000D01*
X166614100Y-91565000D01*
X166614100Y-92674440D01*
G36*
X181210001Y-94604707D02*
X181210001Y-95235000D01*
X181180750Y-95235000D01*
X181022000Y-95393750D01*
X181022000Y-96393000D01*
X181042000Y-96393000D01*
X181042000Y-96647000D01*
X181022000Y-96647000D01*
X181022000Y-97646250D01*
X181180750Y-97805000D01*
X181210001Y-97805000D01*
X181210001Y-101339358D01*
X181012134Y-101300000D01*
X180757866Y-101300000D01*
X180266118Y-101397815D01*
X179970863Y-101595098D01*
X179899090Y-101483559D01*
X179686890Y-101338569D01*
X179545000Y-101309836D01*
X179545000Y-97380807D01*
X179606673Y-97529699D01*
X179785302Y-97708327D01*
X180018691Y-97805000D01*
X180609250Y-97805000D01*
X180768000Y-97646250D01*
X180768000Y-96647000D01*
X180748000Y-96647000D01*
X180748000Y-96393000D01*
X180768000Y-96393000D01*
X180768000Y-95393750D01*
X180609250Y-95235000D01*
X180018691Y-95235000D01*
X179785302Y-95331673D01*
X179606673Y-95510301D01*
X179545000Y-95659193D01*
X179545000Y-92939706D01*
X181210001Y-94604707D01*
X181210001Y-94604707D01*
G37*
X181210001Y-94604707D02*
X181210001Y-95235000D01*
X181180750Y-95235000D01*
X181022000Y-95393750D01*
X181022000Y-96393000D01*
X181042000Y-96393000D01*
X181042000Y-96647000D01*
X181022000Y-96647000D01*
X181022000Y-97646250D01*
X181180750Y-97805000D01*
X181210001Y-97805000D01*
X181210001Y-101339358D01*
X181012134Y-101300000D01*
X180757866Y-101300000D01*
X180266118Y-101397815D01*
X179970863Y-101595098D01*
X179899090Y-101483559D01*
X179686890Y-101338569D01*
X179545000Y-101309836D01*
X179545000Y-97380807D01*
X179606673Y-97529699D01*
X179785302Y-97708327D01*
X180018691Y-97805000D01*
X180609250Y-97805000D01*
X180768000Y-97646250D01*
X180768000Y-96647000D01*
X180748000Y-96647000D01*
X180748000Y-96393000D01*
X180768000Y-96393000D01*
X180768000Y-95393750D01*
X180609250Y-95235000D01*
X180018691Y-95235000D01*
X179785302Y-95331673D01*
X179606673Y-95510301D01*
X179545000Y-95659193D01*
X179545000Y-92939706D01*
X181210001Y-94604707D01*
M02*
