M48
;DRILL file {KiCad 4.0.1-stable} date 16.12.2015 23:49:01
;FORMAT={-:-/ absolute / metric / decimal}
FMAT,2
METRIC,TZ
T1C0.400
T2C0.800
T3C1.016
T4C3.000
%
G90
G05
M71
T1
X133.35Y-90.805
X135.255Y-105.244
X137.16Y-88.9
X143.51Y-90.805
X145.512Y-104.14
X146.685Y-92.71
X147.32Y-96.52
X151.13Y-92.075
X151.765Y-86.48
X151.765Y-93.345
X152.31Y-85.18
X152.343Y-113.087
X153.035Y-117.475
X154.94Y-90.805
X155.575Y-92.075
X156.21Y-93.345
X156.21Y-122.555
X165.1Y-125.095
X172.72Y-101.6
X172.72Y-107.315
X173.99Y-99.695
X175.895Y-106.68
X180.34Y-99.695
X184.15Y-123.825
T2
X158.655Y-102.585
X158.655Y-104.585
X158.655Y-106.585
X158.655Y-108.585
X158.655Y-110.585
X158.655Y-112.585
X158.655Y-114.585
X158.655Y-116.585
X158.655Y-118.585
X158.655Y-120.585
X160.655Y-102.585
X160.655Y-104.585
X160.655Y-106.585
X160.655Y-108.585
X160.655Y-110.585
X160.655Y-112.585
X160.655Y-114.585
X160.655Y-116.585
X160.655Y-118.585
X160.655Y-120.585
X178.785Y-102.585
X178.785Y-104.585
X178.785Y-106.585
X178.785Y-108.585
X178.785Y-110.585
X178.785Y-112.585
X178.785Y-114.585
X178.785Y-116.585
X178.785Y-118.585
X178.785Y-120.585
X180.785Y-102.585
X180.785Y-104.585
X180.785Y-106.585
X180.785Y-108.585
X180.785Y-110.585
X180.785Y-112.585
X180.785Y-114.585
X180.785Y-116.585
X180.785Y-118.585
X180.785Y-120.585
T3
X133.985Y-113.665
X133.985Y-116.205
X133.985Y-118.745
X133.985Y-121.285
X136.525Y-113.665
X136.525Y-116.205
X136.525Y-118.745
X136.525Y-121.285
X157.48Y-81.915
X157.48Y-84.455
X160.02Y-81.915
X160.02Y-84.455
X162.56Y-81.915
X162.56Y-84.455
X165.1Y-81.915
X165.1Y-84.455
X167.64Y-81.915
X167.64Y-84.455
X170.18Y-81.915
X170.18Y-84.455
X172.72Y-81.915
X172.72Y-84.455
X175.26Y-81.915
X175.26Y-84.455
X177.8Y-81.915
X177.8Y-84.455
X180.34Y-81.915
X180.34Y-84.455
T4
X133.985Y-74.295
X133.985Y-127.635
X180.975Y-74.295
X180.975Y-127.635
T0
M30
