G04 #@! TF.FileFunction,Soldermask,Top*
%FSLAX46Y46*%
G04 Gerber Fmt 4.6, Leading zero omitted, Abs format (unit mm)*
G04 Created by KiCad (PCBNEW 4.0.1-stable) date 16.12.2015 23:49:10*
%MOMM*%
G01*
G04 APERTURE LIST*
%ADD10C,0.100000*%
%ADD11R,1.900000X1.650000*%
%ADD12R,1.598880X1.598880*%
%ADD13R,2.127200X2.127200*%
%ADD14O,2.127200X2.127200*%
%ADD15R,1.900000X1.700000*%
%ADD16O,1.900000X1.700000*%
%ADD17R,2.200860X1.200100*%
%ADD18R,1.700000X1.900000*%
%ADD19R,0.800000X1.600000*%
%ADD20R,3.549600X2.200860*%
%ADD21R,4.057600X2.432000*%
%ADD22R,1.416000X2.432000*%
G04 APERTURE END LIST*
D10*
D11*
X134660000Y-99695000D03*
X137160000Y-99695000D03*
X132755000Y-85725000D03*
X135255000Y-85725000D03*
X148012231Y-106045000D03*
X145512231Y-106045000D03*
X147320000Y-119380000D03*
X144820000Y-119380000D03*
D12*
X163001960Y-92075000D03*
X165100000Y-92075000D03*
X169959020Y-92075000D03*
X167860980Y-92075000D03*
D13*
X157480000Y-84455000D03*
D14*
X157480000Y-81915000D03*
X160020000Y-84455000D03*
X160020000Y-81915000D03*
X162560000Y-84455000D03*
X162560000Y-81915000D03*
X165100000Y-84455000D03*
X165100000Y-81915000D03*
X167640000Y-84455000D03*
X167640000Y-81915000D03*
X170180000Y-84455000D03*
X170180000Y-81915000D03*
X172720000Y-84455000D03*
X172720000Y-81915000D03*
X175260000Y-84455000D03*
X175260000Y-81915000D03*
X177800000Y-84455000D03*
X177800000Y-81915000D03*
X180340000Y-84455000D03*
X180340000Y-81915000D03*
D15*
X158555000Y-102585000D03*
D16*
X160755000Y-102585000D03*
X158555000Y-104585000D03*
X160755000Y-104585000D03*
X158555000Y-106585000D03*
X160755000Y-106585000D03*
X158555000Y-108585000D03*
X160755000Y-108585000D03*
X158555000Y-110585000D03*
X160755000Y-110585000D03*
X158555000Y-112585000D03*
X160755000Y-112585000D03*
X158555000Y-114585000D03*
X160755000Y-114585000D03*
X158555000Y-116585000D03*
X160755000Y-116585000D03*
X158555000Y-118585000D03*
X160755000Y-118585000D03*
X158555000Y-120585000D03*
X160755000Y-120585000D03*
X180885000Y-104585000D03*
X180885000Y-106585000D03*
X178685000Y-106585000D03*
X180885000Y-102585000D03*
D15*
X178685000Y-102585000D03*
D16*
X178685000Y-104585000D03*
X178685000Y-118585000D03*
X180885000Y-118585000D03*
X180885000Y-120585000D03*
X180885000Y-114585000D03*
X178685000Y-116585000D03*
X180885000Y-116585000D03*
X178685000Y-120585000D03*
X178685000Y-114585000D03*
X178685000Y-112585000D03*
X180885000Y-110585000D03*
X178685000Y-108585000D03*
X180885000Y-108585000D03*
X178685000Y-110585000D03*
X180885000Y-112585000D03*
D17*
X172316140Y-119695000D03*
X172316140Y-117795000D03*
X169313860Y-118745000D03*
D15*
X141605000Y-90805000D03*
X138905000Y-90805000D03*
D18*
X139065000Y-86995000D03*
X139065000Y-84295000D03*
D15*
X174545000Y-92710000D03*
X177245000Y-92710000D03*
X177165000Y-95885000D03*
X174465000Y-95885000D03*
D18*
X183515000Y-90645000D03*
X183515000Y-93345000D03*
D15*
X183595000Y-96520000D03*
X180895000Y-96520000D03*
X162480000Y-95885000D03*
X165180000Y-95885000D03*
X168275000Y-95885000D03*
X170975000Y-95885000D03*
D19*
X149860000Y-81280000D03*
X149225000Y-81280000D03*
X148590000Y-81280000D03*
X147955000Y-81280000D03*
X147320000Y-81280000D03*
X146685000Y-81280000D03*
X146050000Y-81280000D03*
X145415000Y-81280000D03*
X144780000Y-81280000D03*
X144145000Y-81280000D03*
X143510000Y-81280000D03*
X142875000Y-81280000D03*
X142875000Y-86480000D03*
X143510000Y-86480000D03*
X144145000Y-86480000D03*
X144780000Y-86480000D03*
X145415000Y-86480000D03*
X146050000Y-86480000D03*
X146685000Y-86480000D03*
X147320000Y-86480000D03*
X147955000Y-86480000D03*
X148590000Y-86480000D03*
X149225000Y-86480000D03*
X149860000Y-86480000D03*
D20*
X137795000Y-95250000D03*
X133543040Y-95250000D03*
X138015980Y-80645000D03*
X133764020Y-80645000D03*
X144338040Y-101600000D03*
X148590000Y-101600000D03*
X144338040Y-123190000D03*
X148590000Y-123190000D03*
D21*
X146742231Y-109656991D03*
D22*
X146742231Y-116260991D03*
X149028231Y-116260991D03*
X144456231Y-116260991D03*
D13*
X133985000Y-113665000D03*
D14*
X136525000Y-113665000D03*
X133985000Y-116205000D03*
X136525000Y-116205000D03*
X133985000Y-118745000D03*
X136525000Y-118745000D03*
X133985000Y-121285000D03*
X136525000Y-121285000D03*
M02*
